<?xml version="1.0" encoding="UTF-8"?>
<svg id="Capa_1" data-name="Capa 1" xmlns="http://www.w3.org/2000/svg" viewBox="0 0 210.88 53.01">
  <defs>
    <style>
      .cls-1 {
        fill: #fff;
      }
    </style>
  </defs>
  <g>
    <path class="cls-1" d="M111.16,20.29c.18,3.23,2.08,5.32,4.97,5.32,1.9,0,3.57-.92,3.98-2.4h6.06c-1.36,4.4-5.02,6.89-9.76,6.89-7.41,0-11.12-3.92-11.12-11.68,0-6.63,3.93-10.9,10.76-10.9s10.44,4.27,10.44,12.77h-15.32ZM120.42,16.72c-.09-3.18-2.26-4.71-4.56-4.71s-4.29,1.74-4.52,4.71h9.08Z"/>
    <polygon class="cls-1" points="72.18 0 72.18 11.34 72.18 12.24 59.5 12.24 59.5 11.34 59.5 0 52.7 0 52.7 30.12 59.5 30.12 59.5 17.88 72.18 17.88 72.18 30.12 79.04 30.12 79.04 0 72.18 0"/>
    <path class="cls-1" d="M96.74,30.12h5.72V7.53h-6v12.7c0,2.91-1.63,5.01-4.7,5.01-2.56,0-3.86-1.34-3.86-4.11V7.53h-6.05v14.48c0,4.83,3.21,8.09,7.77,8.09,3.16,0,5.53-1.16,7.11-3.67v3.68Z"/>
    <path class="cls-1" d="M142.8,7.55c-2.67,0-5.18.27-7.35,3.22v-3.23h-6.14v22.58h6.54v-11.44c0-3.53,1.96-5.32,5.99-5.32.6,0,1.21.04,1.81.13v-5.94h-.86Z"/>
    <path class="cls-1" d="M164.79,13.14v-1.46h0v-4.11h-12.29V0h-5.78v21.28c0,4.74,2.58,8.85,9.08,8.85s8.99-4.15,8.99-8.8v-4.4h-5.47v3.86c0,2.73-1.08,4.29-3.43,4.29s-3.39-1.61-3.39-4.38v-7.56h12.29Z"/>
    <path class="cls-1" d="M182.2,30.12h5.42v-14.12c0-5.41-2.44-8.46-9.49-8.46s-9.67,3.09-9.76,7.54h5.47c.27-1.92,1.36-3.18,4.02-3.18,2.31,0,3.75.83,3.75,2.22,0,1.48-.81,2.05-3.75,2.44-5.92.78-10.21,1.48-10.21,7.67,0,3.49,2.35,5.88,7.41,5.88,2.98,0,5.33-1,6.73-2.48.03.49.23,1.7.41,2.48ZM181.7,21.4c-.05,2.53-2.31,4.66-5.33,4.66-1.85,0-2.85-.78-2.85-2.4,0-1.83,1.08-2.75,4.43-3.36,2.17-.39,3.21-.7,3.8-1.26l-.05,2.35Z"/>
    <path class="cls-1" d="M207.22,17.8c-1.72-.65-4.11-1.13-6.64-1.83-2.4-.65-3.62-1.17-3.62-2.44s1.27-1.78,3.48-1.78c2.67,0,3.84.74,4.16,2.83,0,0,.03.47.02.77h5.65l-.03-.77c-.32-4.61-3.21-7.05-9.63-7.05-6.78,0-9.36,2.74-9.36,6.35,0,1.91.72,3.57,2.8,4.83,1.58.96,3.66,1.57,7.41,2.44,1.9.44,3.57.91,3.57,2.44,0,1.61-1.85,2.22-3.93,2.22-2.85,0-4.61-1.17-4.61-3.18h-6.06c.09,4.35,3.89,7.44,10.71,7.44,6.33,0,9.72-2.65,9.72-7.09,0-2.78-1.31-4.26-3.66-5.18Z"/>
  </g>
  <g>
    <g>
      <path class="cls-1" d="M54.76,37.29c-.24.24-.52.36-.84.36s-.61-.12-.85-.36c-.24-.24-.36-.53-.36-.85s.12-.61.36-.86c.24-.25.52-.37.85-.37s.61.12.84.37c.24.25.36.53.36.86s-.12.61-.36.85"/>
      <path class="cls-1" d="M53.72,52.7c-.16,0-.28-.05-.38-.16-.09-.11-.14-.25-.14-.42v-12.06c0-.17.05-.3.14-.4.09-.1.22-.15.38-.15h.39c.34,0,.51.18.51.55v12.06c0,.38-.17.58-.51.58h-.39Z"/>
    </g>
    <g>
      <path class="cls-1" d="M131.76,37.29c-.24.24-.52.36-.84.36s-.61-.12-.85-.36c-.24-.24-.36-.53-.36-.85s.12-.61.36-.86c.24-.25.52-.37.85-.37s.61.12.84.37c.24.25.36.53.36.86s-.12.61-.36.85"/>
      <path class="cls-1" d="M130.72,52.7c-.16,0-.28-.05-.38-.16-.09-.11-.14-.25-.14-.42v-12.06c0-.17.05-.3.14-.4.09-.1.22-.15.38-.15h.39c.34,0,.51.18.51.55v12.06c0,.38-.17.58-.51.58h-.39Z"/>
    </g>
    <g>
      <path class="cls-1" d="M143.5,37.29c-.24.24-.52.36-.84.36s-.61-.12-.85-.36c-.24-.24-.36-.53-.36-.85s.12-.61.36-.86c.24-.25.52-.37.85-.37s.61.12.84.37c.24.25.36.53.36.86s-.12.61-.36.85"/>
      <path class="cls-1" d="M142.46,52.7c-.16,0-.28-.05-.38-.16-.09-.11-.14-.25-.14-.42v-12.06c0-.17.05-.3.14-.4.09-.1.22-.15.38-.15h.39c.34,0,.51.18.51.55v12.06c0,.38-.17.58-.51.58h-.39Z"/>
    </g>
    <g>
      <path class="cls-1" d="M172.28,37.29c-.24.24-.52.36-.84.36s-.61-.12-.85-.36c-.24-.24-.36-.53-.36-.85s.12-.61.36-.86c.24-.25.52-.37.85-.37s.61.12.84.37c.24.25.36.53.36.86s-.12.61-.36.85"/>
      <path class="cls-1" d="M171.24,52.7c-.16,0-.28-.05-.38-.16-.09-.11-.14-.25-.14-.42v-12.06c0-.17.05-.3.14-.4.09-.1.22-.15.38-.15h.39c.34,0,.51.18.51.55v12.06c0,.38-.17.58-.51.58h-.39Z"/>
    </g>
    <path class="cls-1" d="M64.36,39.53c1.6,0,2.87.48,3.83,1.45.96.97,1.44,2.23,1.44,3.8v7.35c0,.38-.17.56-.52.56h-.39c-.16,0-.29-.05-.38-.16-.09-.1-.14-.24-.14-.41v-7.23c0-1.25-.37-2.24-1.1-2.99-.74-.74-1.72-1.12-2.95-1.12s-2.29.38-3.08,1.15c-.79.77-1.19,1.77-1.19,3.01v7.16c0,.17-.05.3-.14.41-.09.1-.22.16-.38.16h-.39c-.16,0-.29-.05-.38-.16-.09-.1-.14-.24-.14-.41v-11.82c0-.17.05-.3.14-.4.09-.1.22-.14.38-.14h.3c.35,0,.52.18.52.54v1.52c.46-.71,1.09-1.27,1.88-1.68.79-.41,1.69-.61,2.69-.61"/>
    <path class="cls-1" d="M88.96,39.52c1.55,0,2.78.48,3.68,1.44.9.96,1.35,2.23,1.35,3.81v7.36c0,.38-.17.57-.52.57h-.39c-.16,0-.29-.05-.38-.16-.09-.1-.14-.24-.14-.41v-7.24c0-1.26-.34-2.25-1.02-3-.68-.74-1.62-1.11-2.81-1.11-1.25,0-2.27.39-3.06,1.16-.79.77-1.19,1.78-1.19,3.01v7.17c0,.38-.17.57-.52.57h-.35c-.35,0-.52-.19-.52-.57v-7.24c0-1.26-.34-2.27-1.02-3-.68-.74-1.63-1.11-2.84-1.11s-2.26.39-3.05,1.16c-.79.77-1.18,1.78-1.18,3.01v7.17c0,.17-.05.3-.14.41-.09.1-.22.16-.38.16h-.39c-.16,0-.29-.05-.38-.16-.09-.1-.14-.24-.14-.41v-11.83c0-.17.05-.3.14-.4.09-.1.22-.14.38-.14h.3c.35,0,.52.18.52.54v1.55c.46-.73,1.09-1.3,1.88-1.71.79-.41,1.68-.62,2.69-.62,1.1,0,2.05.26,2.84.77.79.51,1.37,1.22,1.74,2.12.44-.89,1.09-1.59,1.95-2.11.86-.52,1.85-.78,2.97-.78"/>
    <path class="cls-1" d="M108.59,50.8c-1.3,1.26-2.92,1.89-4.85,1.89s-3.55-.63-4.85-1.89c-1.3-1.26-1.95-2.83-1.95-4.69s.65-3.43,1.95-4.69c1.3-1.26,2.92-1.89,4.85-1.89s3.55.63,4.85,1.89c1.3,1.26,1.95,2.83,1.95,4.69s-.65,3.43-1.95,4.69M103.73,51.43c1.54,0,2.82-.5,3.84-1.51,1.01-1.01,1.52-2.28,1.52-3.81s-.51-2.8-1.52-3.81c-1.01-1.01-2.29-1.51-3.84-1.51s-2.82.5-3.84,1.51c-1.01,1.01-1.52,2.28-1.52,3.81s.5,2.8,1.51,3.81c1.01,1.01,2.29,1.51,3.85,1.51"/>
    <path class="cls-1" d="M136.28,52.7c-.16,0-.28-.05-.38-.16-.09-.1-.14-.24-.14-.41v-17.05c0-.28.16-.46.49-.56l.34-.08c.39-.12.59.05.59.49v17.21c0,.17-.05.3-.14.41-.09.1-.22.16-.38.16h-.39Z"/>
    <path class="cls-1" d="M151.93,39.56c1.64,0,2.92.45,3.84,1.35.91.9,1.37,2.13,1.37,3.71v7.51c0,.38-.17.56-.51.56h-.34c-.34,0-.51-.19-.51-.56v-1.37c-.53.7-1.2,1.25-2.02,1.65-.82.4-1.7.59-2.62.59-1.48,0-2.67-.38-3.58-1.13-.91-.75-1.36-1.74-1.36-2.98s.49-2.28,1.47-3.05c.98-.77,2.27-1.16,3.86-1.16,1.49,0,2.91.36,4.26,1.08v-1.44c0-1.04-.35-1.88-1.06-2.52-.71-.64-1.65-.96-2.83-.96-1.48,0-2.87.53-4.18,1.59-.26.21-.51.18-.74-.08l-.11-.14c-.24-.3-.19-.59.16-.86.83-.63,1.63-1.09,2.42-1.38.79-.28,1.62-.43,2.5-.43M151.22,51.72c.78,0,1.51-.14,2.19-.43.68-.28,1.25-.71,1.7-1.28.45-.57.67-1.22.67-1.96v-.98c-1.5-.75-2.91-1.13-4.23-1.13-1.18,0-2.12.27-2.84.82-.72.55-1.08,1.27-1.08,2.16,0,.83.33,1.51,1,2.02.66.51,1.53.77,2.6.77"/>
    <path class="cls-1" d="M167.38,39.71c.32.1.41.34.29.72l-.05.2c-.11.33-.34.43-.69.31-.35-.1-.66-.15-.92-.15-.95,0-1.73.42-2.34,1.26-.61.84-.92,1.91-.92,3.21v6.87c0,.17-.04.3-.13.41-.09.1-.21.16-.36.16h-.38c-.15,0-.28-.05-.36-.16-.09-.1-.13-.24-.13-.41v-11.83c0-.17.04-.3.13-.4.09-.1.21-.14.36-.14h.29c.33,0,.5.18.5.54v1.64c.34-.76.81-1.36,1.4-1.78.6-.43,1.28-.64,2.06-.64.41,0,.83.06,1.25.19"/>
    <path class="cls-1" d="M125.91,42.82c-.54-1-1.31-1.79-2.3-2.37-.99-.58-2.11-.87-3.35-.87-1.07,0-2.04.21-2.9.63-.86.42-1.58,1-2.17,1.74v-7.53c0-.37-.17-.55-.51-.55h-.39c-.16,0-.28.05-.38.15-.09.1-.14.23-.14.4v.78s0,0,0,.01v16.62s0,0,0,.01v.3c0,.37.17.55.51.55h.39c.16,0,.28-.05.38-.15.09-.1.14-.23.14-.4v-1.9c.56.76,1.27,1.35,2.13,1.79.87.44,1.85.66,2.94.66.93,0,1.79-.17,2.6-.51.81-.34,1.49-.81,2.05-1.39.56-.59,1-1.28,1.32-2.09.32-.81.48-1.66.48-2.56,0-1.21-.27-2.32-.81-3.31ZM124.67,48.8c-.42.8-1.03,1.44-1.82,1.92-.79.48-1.69.71-2.7.71-1.46,0-2.67-.48-3.63-1.43-.96-.95-1.45-2.24-1.48-3.87-.03-1.62.45-2.91,1.44-3.86.99-.96,2.21-1.43,3.67-1.43,1.01,0,1.91.24,2.7.71.79.48,1.4,1.11,1.82,1.92.42.8.63,1.69.63,2.67s-.21,1.86-.63,2.67Z"/>
    <path class="cls-1" d="M185.59,44.46c0-1.55-.46-2.76-1.37-3.64-.91-.88-2.19-1.32-3.84-1.32-.88,0-1.71.14-2.5.42-.79.28-1.6.73-2.42,1.35-.35.27-.41.55-.16.85l.11.14c.23.25.48.28.74.07,1.31-1.04,2.7-1.56,4.18-1.56,1.18,0,2.12.31,2.83.94.71.63,1.06,1.45,1.06,2.47v1.41c-1.34-.7-2.76-1.06-4.26-1.06-1.59,0-2.88.38-3.86,1.14-.98.76-1.47,1.75-1.47,2.99s.45,2.19,1.36,2.92c.91.74,2.1,1.1,3.58,1.1.93,0,1.8-.19,2.62-.58.8-.38,1.45-.9,1.97-1.56v1.57c0,.17.05.31.14.42.09.11.22.16.38.16h.39c.34,0,.51-.19.51-.58v-.29s0,0,0,0v-7.36ZM183.56,49.75c-.45.56-1.01.98-1.7,1.26-.68.28-1.42.42-2.19.42-1.07,0-1.93-.25-2.6-.75-.66-.5-1-1.16-1-1.98,0-.88.36-1.58,1.08-2.12.72-.54,1.67-.8,2.84-.8,1.32,0,2.73.37,4.23,1.1v.96c0,.72-.22,1.36-.67,1.92Z"/>
  </g>
  <g>
    <rect class="cls-1" x="15.05" y="45.18" width="26.36" height="7.53"/>
    <rect class="cls-1" x="0" y="45.17" width="7.53" height="7.53"/>
    <polygon class="cls-1" points="11.29 0 0 15.06 0 37.55 7.53 37.55 7.53 17.66 15.1 7.53 41.41 7.53 41.41 0 11.29 0"/>
    <rect class="cls-1" x="32" y="15.05" width="9.41" height="9.41"/>
    <rect class="cls-1" x="15.06" y="15.05" width="9.41" height="9.41"/>
    <rect class="cls-1" x="32" y="28.23" width="9.41" height="9.41"/>
    <rect class="cls-1" x="15.06" y="28.23" width="9.41" height="9.41"/>
  </g>
</svg>