<?xml version="1.0" encoding="UTF-8"?>
<svg id="Capa_1" data-name="Capa 1" xmlns="http://www.w3.org/2000/svg" viewBox="0 0 48.46 58.22">
  <defs>
    <style>
      .cls-1 {
        fill: #6aa139;
      }

      .cls-2 {
        fill: #fefefe;
      }
    </style>
  </defs>
  <path class="cls-2" d="M13.91,11.23c-.78-1.72-.15-3.25,1.11-4.51.86-.86,2.71-1.74,2.4-3.24-.24-1.13-1.75-1.6-1.89-2.24-.11-.52.13-1.1.67-1.22.79-.17,1.81.84,2.28,1.43,1.48,1.86,1.04,3.81-.55,5.4-.73.73-2.16,1.45-2.4,2.57-.4,1.93,2.78,2.32,1.73,3.78-.92,1.28-2.95-1.09-3.35-1.97Z"/>
  <path class="cls-2" d="M21.66,11.23c-.77-1.72-.14-3.25,1.11-4.51.86-.86,2.71-1.74,2.4-3.24-.23-1.13-1.75-1.6-1.89-2.24-.11-.52.13-1.1.67-1.22.8-.17,1.81.84,2.28,1.43,1.48,1.86,1.05,3.81-.54,5.4-.73.73-2.17,1.45-2.4,2.57-.4,1.93,2.77,2.32,1.72,3.78-.92,1.28-2.95-1.09-3.35-1.97Z"/>
  <path class="cls-2" d="M29.42,11.23c-.78-1.72-.15-3.25,1.11-4.51.85-.86,2.71-1.74,2.4-3.24-.24-1.13-1.75-1.6-1.89-2.24-.12-.52.12-1.1.67-1.22.79-.17,1.8.84,2.27,1.43,1.49,1.86,1.05,3.81-.54,5.4-.73.73-2.17,1.45-2.4,2.57-.4,1.93,2.77,2.32,1.73,3.78-.92,1.28-2.96-1.09-3.35-1.97Z"/>
  <path class="cls-2" d="M28.29,27.13c-2.67-.24-5.74.17-8.45.04-3.34.74-3.08,5.48.33,5.79,1.87.17,6.55.22,8.35-.02,3.29-.43,3.35-5.48-.23-5.81ZM28.28,31.01c-2.37.37-5.63-.26-8.1,0-1.02-.16-1.09-1.62-.1-1.91l8.2-.02c1.07.17,1.07,1.76,0,1.93Z"/>
  <path class="cls-2" d="M47.19,25.68c-.15-.1-.99-.48-1.09-.48h-3.45v-5.15c0-.14-.53-.67-.67-.67h-3.33c.53-1.86-.67-3.7-2.6-3.88-2.06-.19-5.93-.16-8.01,0-2.02.16-3.26,1.93-2.72,3.88h-2.18c.54-1.86-.67-3.7-2.6-3.88-2.06-.19-5.93-.16-8.01,0-2.01.16-3.25,1.93-2.72,3.88h-3.33c-.14,0-.66.53-.66.67v5.15h-3.46c-.2,0-.99.45-1.21.61-1.68,1.29-1.49,3.82.36,4.84,1.42.79,4,.14,5.62.38,1.04,2.69,2.79,5.09,4.92,7.01.3.28,1.82,1.34,1.86,1.54l-5.16,17.33c-.13.46.1,1.04.57,1.19.46.14,3.7.13,4.31.05.25-.02.42-.07.61-.24l2.19-6.53,15.68.04,1.91,6.21c.23.43.47.49.93.53.75.07,3.45.11,4.1-.03.44-.1.73-.56.69-1l-5.19-17.55c.06-.26,1.42-1.14,1.74-1.42,2.16-1.92,4-4.42,5.04-7.13,1.62-.24,4.2.41,5.62-.38,1.9-1.05,2.03-3.73.24-4.97ZM2.6,29.08c-.85-.19-1.01-1.8.24-1.95.98-.11,2.14.1,3.14,0l.44,1.95c-1.09-.16-2.81.21-3.82,0ZM27.83,17.47l8.21-.02c1.07.17,1.07,1.76,0,1.93-2.37.37-5.64-.26-8.11,0-1.02-.16-1.08-1.62-.1-1.91ZM12.32,17.47l8.21-.02c1.07.17,1.07,1.76,0,1.93-2.37.37-5.64-.26-8.1,0-1.03-.16-1.09-1.62-.11-1.91ZM12.84,56.21h-1.82l4.67-15.63,1.6.79-4.45,14.84ZM16.96,49.43l.56-1.95h13.42l.56,1.95h-14.54ZM18.05,45.55l1.09-3.63c3.28.95,6.84,1,10.11-.01l1.16,3.64h-12.36ZM37.44,56.21h-1.82l-4.45-14.84,1.6-.79,4.67,15.63ZM30.98,39.27c-10.66,4.69-22.43-2.62-23.23-14.07h32.96c-.4,6.04-4.19,11.64-9.73,14.07ZM40.71,23.26H7.75v-1.94h32.96v1.94ZM45.86,29.08h-3.82l.44-1.95c1,.1,2.16-.11,3.14,0,1.42.17.89,1.95.24,1.95Z"/>
  <path class="cls-1" d="M28.29,27.13c-2.67-.24-5.74.17-8.45.04-3.34.74-3.08,5.48.33,5.79,1.87.17,6.55.22,8.35-.02,3.29-.43,3.35-5.48-.23-5.81ZM28.28,31.01c-2.37.37-5.63-.26-8.1,0-1.02-.16-1.09-1.62-.1-1.91l8.2-.02c1.07.17,1.07,1.76,0,1.93Z"/>
  <path class="cls-1" d="M47.19,25.68c-.15-.1-.99-.48-1.09-.48h-3.45v-5.15c0-.14-.53-.67-.67-.67h-3.33c.53-1.86-.67-3.7-2.6-3.88-2.06-.19-5.93-.16-8.01,0-2.02.16-3.26,1.93-2.72,3.88h-2.18c.54-1.86-.67-3.7-2.6-3.88-2.06-.19-5.93-.16-8.01,0-2.01.16-3.25,1.93-2.72,3.88h-3.33c-.14,0-.66.53-.66.67v5.15h-3.46c-.2,0-.99.45-1.21.61-1.68,1.29-1.49,3.82.36,4.84,1.42.79,4,.14,5.62.38,1.04,2.69,2.79,5.09,4.92,7.01.3.28,1.82,1.34,1.86,1.54l-5.16,17.33c-.13.46.1,1.04.57,1.19.46.14,3.7.13,4.31.05.25-.02.42-.07.61-.24l2.19-6.53,15.68.04,1.91,6.21c.23.43.47.49.93.53.75.07,3.45.11,4.1-.03.44-.1.73-.56.69-1l-5.19-17.55c.06-.26,1.42-1.14,1.74-1.42,2.16-1.92,4-4.42,5.04-7.13,1.62-.24,4.2.41,5.62-.38,1.9-1.05,2.03-3.73.24-4.97ZM2.6,29.08c-.85-.19-1.01-1.8.24-1.95.98-.11,2.14.1,3.14,0l.44,1.95c-1.09-.16-2.81.21-3.82,0ZM27.83,17.47l8.21-.02c1.07.17,1.07,1.76,0,1.93-2.37.37-5.64-.26-8.11,0-1.02-.16-1.08-1.62-.1-1.91ZM12.32,17.47l8.21-.02c1.07.17,1.07,1.76,0,1.93-2.37.37-5.64-.26-8.1,0-1.03-.16-1.09-1.62-.11-1.91ZM12.84,56.21h-1.82l4.67-15.63,1.6.79-4.45,14.84ZM16.96,49.43l.56-1.95h13.42l.56,1.95h-14.54ZM18.05,45.55l1.09-3.63c3.28.95,6.84,1,10.11-.01l1.16,3.64h-12.36ZM37.44,56.21h-1.82l-4.45-14.84,1.6-.79,4.67,15.63ZM30.98,39.27c-10.66,4.69-22.43-2.62-23.23-14.07h32.96c-.4,6.04-4.19,11.64-9.73,14.07ZM40.71,23.26H7.75v-1.94h32.96v1.94ZM45.86,29.08h-3.82l.44-1.95c1,.1,2.16-.11,3.14,0,1.42.17.89,1.95.24,1.95Z"/>
  <path class="cls-1" d="M15.53,9.42c-.4,1.93,2.78,2.32,1.73,3.78-.92,1.28-2.95-1.09-3.35-1.97-.78-1.72-.15-3.25,1.11-4.51.86-.86,2.71-1.74,2.4-3.24-.24-1.13-1.75-1.6-1.89-2.24-.11-.52.13-1.1.67-1.22.79-.17,1.81.84,2.28,1.43,1.48,1.86,1.04,3.81-.55,5.4-.73.73-2.16,1.45-2.4,2.57Z"/>
  <path class="cls-1" d="M23.29,9.42c-.4,1.93,2.77,2.32,1.72,3.78-.92,1.28-2.95-1.09-3.35-1.97-.77-1.72-.14-3.25,1.11-4.51.86-.86,2.71-1.74,2.4-3.24-.23-1.13-1.75-1.6-1.89-2.24-.11-.52.13-1.1.67-1.22.8-.17,1.81.84,2.28,1.43,1.48,1.86,1.05,3.81-.54,5.4-.73.73-2.17,1.45-2.4,2.57Z"/>
  <path class="cls-1" d="M31.04,9.42c-.4,1.93,2.77,2.32,1.73,3.78-.92,1.28-2.96-1.09-3.35-1.97-.78-1.72-.15-3.25,1.11-4.51.85-.86,2.71-1.74,2.4-3.24-.24-1.13-1.75-1.6-1.89-2.24-.12-.52.12-1.1.67-1.22.79-.17,1.8.84,2.27,1.43,1.49,1.86,1.05,3.81-.54,5.4-.73.73-2.17,1.45-2.4,2.57Z"/>
  <path class="cls-2" d="M28.29,27.13c-2.67-.24-5.74.17-8.45.04-3.34.74-3.08,5.48.33,5.79,1.87.17,6.55.22,8.35-.02,3.29-.43,3.35-5.48-.23-5.81ZM28.28,31.01c-2.37.37-5.63-.26-8.1,0-1.02-.16-1.09-1.62-.1-1.91l8.2-.02c1.07.17,1.07,1.76,0,1.93Z"/>
  <path class="cls-1" d="M28.29,27.13c-2.67-.24-5.74.17-8.45.04-3.34.74-3.08,5.48.33,5.79,1.87.17,6.55.22,8.35-.02,3.29-.43,3.35-5.48-.23-5.81ZM28.28,31.01c-2.37.37-5.63-.26-8.1,0-1.02-.16-1.09-1.62-.1-1.91l8.2-.02c1.07.17,1.07,1.76,0,1.93Z"/>
</svg>