<?xml version="1.0" encoding="UTF-8"?>
<svg id="Capa_1" data-name="Capa 1" xmlns="http://www.w3.org/2000/svg" viewBox="0 0 49.61 49.84">
  <defs>
    <style>
      .cls-1 {
        fill: #afcc94;
      }

      .cls-2 {
        fill: #8bb564;
      }

      .cls-3 {
        fill: #6aa139;
      }

      .cls-4 {
        fill: #fefefe;
      }
    </style>
  </defs>
  <polygon class="cls-4" points="9.48 26.52 9.48 34.27 9.28 34.18 9.28 26.64 9.48 26.52"/>
  <path class="cls-4" d="M1.73,49.66c-.9-.34-1.55-.86-1.64-1.88-.06-.67-.09-1.36-.1-2.05v-1.28c.03-2.85.28-5.83.11-8.58.02-.59.92-1.6,1.49-1.6l-.08.2c-.57.21-1.04.76-1.21,1.35.07,2.55.03,5.1-.11,7.66-.05,1.48-.01,2.96.11,4.44.06.72.72,1.26,1.36,1.5l.07.24Z"/>
  <path class="cls-4" d="M1.59,34.27h4.02c0,.07-.02.19-.07.19-1.19.06-2.65.06-3.84,0l-.11-.19Z"/>
  <path class="cls-4" d="M5.61,34.27v-7.75l.19.09v7.54l-.19.12Z"/>
  <path class="cls-4" d="M15,20.09c-.24,2.95-2.65,5.76-5.52,6.43l.19-.25c2.4-.7,4.37-2.79,4.97-5.21.48-1.93.43-6.64.14-8.66C13.66,4.4,2.07,4.04.55,11.72c-.45,2.28-.49,5.18-.31,7.5.26,3.39,1.83,5.91,5.15,7.04l.22.26c-3.01-.8-5.28-3.52-5.52-6.63-.04-.51-.07-1.15-.1-1.86v-2.74c.08-2.05.32-4.11.89-5.26,3.29-6.6,13.47-4.7,14.11,2.51.18,1.96.16,5.58.01,7.55Z"/>
  <path class="cls-4" d="M22.69,34.27h10.01l-.06.19h-10.29c-1.11.27-2.22.56-3.33.84-1.62-.53-3.27-.92-5.05-.85l-4.09.02c-.15-.03-.29-.1-.4-.2,2.63.09,5.35-.26,7.93.34.44.1,1.29.48,1.61.5.66.03,2.75-1,3.67-.84Z"/>
  <polygon class="cls-4" points="32.7 22.46 32.7 10.02 32.9 10.08 32.9 22.34 32.7 22.46"/>
  <polygon class="cls-4" points="32.7 34.27 32.7 26.47 32.9 26.54 32.9 34.15 32.7 34.27"/>
  <path class="cls-4" d="M36,9.14c.18.19.57.94.57,1.17l-.19-.04c-.45-1.84-2.71-2.02-3.47-.3l-.21.05c0-.3.67-1.04.94-1.2.68-.4,1.81-.26,2.36.32Z"/>
  <path class="cls-4" d="M36.57,10.31v2.37c-.07-.02-.18-.05-.19-.11-.02-.23-.05-2.03,0-2.12.04-.08.12-.12.19-.14Z"/>
  <polygon class="cls-4" points="36.57 18.15 36.57 22.46 36.38 22.39 36.38 18.26 36.57 18.15"/>
  <polygon class="cls-4" points="36.57 26.33 36.57 34.27 36.38 34.2 36.38 26.45 36.57 26.33"/>
  <path class="cls-4" d="M36.57,18.15l-.07-.22c.92-.88,1.82-1.78,2.7-2.69,1.23-1.65-.76-3.49-2.4-2.48l-.23-.08c1.51-1.08,3.59.17,3.13,2.01-.26,1.04-2.44,2.54-3.13,3.46Z"/>
  <path class="cls-4" d="M36.57,26.33l.12-.21c1.15-.17,2.42-.41,3.42-1.03.76-.47,1.15-1.29.8-2.15-.65-1.65-2.39-1.02-3.59-.47-.35.18-.59.17-.75-.01,1.31-.19,2.53-1.34,3.81-.47.85.58,1.09,1.68.57,2.57-.65,1.11-3.16,1.64-4.38,1.77Z"/>
  <path class="cls-4" d="M32.7,22.46c-.06.03-.12.07-.18.09-.62.21-2.88-1.06-3.47-1.49-6.62-4.77-4.53-15.14,3.4-16.99,6.99-1.63,13.19,4.82,11.37,11.69-.37,2.22,2.71,2.95,3.4.79.86-2.72.27-6.63-1.02-9.15-4.38-8.49-16.26-9.53-21.99-1.87-5.91,7.88-1.22,19.07,8.36,20.69l.13.25c-.58-.23-1.28-.31-1.91-.5-8.38-2.5-12.04-12.51-7.22-19.87,5.93-9.04,19.8-7.44,23.46,2.75.76,2.14,1.17,5.99.24,8.09-.67,1.52-2.99,1.43-3.55-.13-.33-.89.15-1.89.21-2.82.43-6.74-6.14-11.67-12.51-9.42-4.08,1.45-6.62,5.7-6.06,9.99.51,3.9,3.49,7.11,7.34,7.9Z"/>
  <polygon class="cls-4" points="36.57 34.27 48.14 34.27 48.07 34.46 36.69 34.46 36.57 34.27"/>
  <path class="cls-4" d="M49.64,35.72c-.18,0-.33-.13-.43-.4,0,0-.36-.35-1.07-1.05.58,0,1.32.93,1.5,1.45Z"/>
  <path class="cls-3" d="M48.14,34.27h-11.57v-7.94c1.22-.13,3.73-.66,4.38-1.77.52-.89.28-1.99-.57-2.57-1.28-.87-2.5.28-3.81.47v-4.31c.69-.92,2.87-2.42,3.13-3.46.46-1.84-1.62-3.09-3.13-2.01v-2.37c0-.23-.39-.98-.57-1.17-.55-.58-1.68-.72-2.36-.32-.27.16-.94.9-.94,1.2v12.44c-3.85-.79-6.83-4-7.34-7.9-.56-4.29,1.98-8.54,6.06-9.99,6.37-2.25,12.94,2.68,12.51,9.42-.06.93-.54,1.93-.21,2.82.56,1.56,2.88,1.65,3.55.13.93-2.1.52-5.95-.24-8.09-3.66-10.19-17.53-11.79-23.46-2.75-4.82,7.36-1.16,17.37,7.22,19.87.63.19,1.33.27,1.91.5v7.8h-10.01c-.92-.16-3.01.87-3.67.84-.32-.02-1.17-.4-1.61-.5-2.58-.6-5.3-.25-7.93-.34v-7.75c2.87-.67,5.28-3.48,5.52-6.43.15-1.97.17-5.59-.01-7.55C14.35,5.33,4.17,3.43.88,10.03.31,11.18.07,13.24-.01,15.29c-.02.95-.02,1.89,0,2.74.03.71.06,1.35.1,1.86.24,3.11,2.51,5.83,5.52,6.63v7.75H1.59c-.57,0-1.47,1.01-1.49,1.6.17,2.75-.08,5.73-.11,8.58v1.28c.01.69.04,1.38.1,2.05.09,1.02.74,1.54,1.64,1.88h10.36c4.56-.05,9.21-.08,13.94-.1,7.34.01,14.56.05,21.67.1h.2c.87-.24,1.42-.7,1.74-1.55v-12.39c-.18-.52-.92-1.45-1.5-1.45ZM4.12,20.4c-.33-1.12-.27-5.83-.16-7.19.14-1.76,1.49-3.24,3.27-3.41,1.67-.16,3.47,1.03,3.82,2.71.26,1.21.2,5.91.08,7.29-.34,3.69-5.9,4.27-7.01.6ZM10.86,44.12c-.08.27-.3,1.67-.46,1.67H3.96v-7.65h10.36c-1.63,1.69-2.8,3.72-3.46,5.98ZM14.51,45.69c.54-3.26,3.26-6.15,6.39-7.11.44-.14,1.48-.44,1.88-.44h22.99v7.65l-31.26-.1Z"/>
  <path class="cls-1" d="M47.7,49.66h-21.68c-.08-.03-.08-.06,0-.1,7.05,0,14.1-.08,21.15,0,.16,0,.43-.06.53.1Z"/>
  <path class="cls-2" d="M26.02,49.57v.1h-13.94c.1-.16.37-.1.53-.1,4.47-.06,8.94,0,13.4,0Z"/>
</svg>