<?xml version="1.0" encoding="UTF-8"?>
<svg id="Capa_1" data-name="Capa 1" xmlns="http://www.w3.org/2000/svg" viewBox="0 0 56.8 35.34">
  <defs>
    <style>
      .cls-1 {
        fill: #6aa139;
      }

      .cls-2 {
        fill: #a8c88b;
      }

      .cls-3 {
        fill: #fefefe;
      }
    </style>
  </defs>
  <path class="cls-3" d="M56.8,25.3c-.27.48-.29,1.07-.45,1.61-2.31,7.97-11.96,11.1-18.47,5.82-5.33-4.32-5.63-12.11-1-17.08.27-.3,1.13-.81,1.17-1.17l-1.67-4.49-.25.14-8.74,14.67c-.97,1.1-2.98.41-4.31.63-1.38,8.55-11.14,12.83-18.31,7.68-6.81-4.9-6.21-15.3,1.07-19.44,2.75-1.56,5.83-1.82,8.91-1.13l-1.33-3.5c-1.17-.2-2.61.37-3.28-.93-.53-1.02-.07-1.97.94-2.4,2.01.04,4.3-.23,6.28-.05,2.43.21,1.97,3.57-.39,3.33l.85,2,14-.02,3.2-5.47c-.61-1.06-1.64-1.87-2.85-2.12-.96-.2-2.33-.02-2.55-1.44-.42-2.76,3.35-1.96,4.84-1.29,4.23,1.92,4.07,5.77,5.44,9.54.33.89.7,1.79,1.14,2.64.17.1,1.45-.37,1.8-.44,5.56-1.12,11.08,1.87,13.15,7.11l.81,2.8-.24-.03c-1.25-7.25-8.29-11.66-15.37-9.21l-.28-.08c-1.09-2.19-1.89-4.47-2.41-6.85-.71-3.35-3.63-6-7.06-5.9-1.83.05-2.28,1.79-.8,2.66,1.83.26,3.69.68,4.58,2.58-1.02,1.93-2.11,3.81-3.28,5.66-4.67.12-9.54.11-14.22.04-.21-.3-1.05-2.04-.87-2.28.9-.15,1.73-.34,1.89-1.4.19-1.3-.94-1.63-2.04-1.65-1.77-.04-3.82-.04-5.58.09-.3.02-.82.64-.91.93-.61,1.8,1.65,2.11,2.89,1.92.3,0,.39.05.56.28.11.13,1.26,3.08,1.24,3.25-.02.29-.08.45-.39.4C2.25,9.71-5.29,25.71,5.07,33.04c7.01,4.97,16.49.56,17.87-7.74.79-.16,1.62-.19,2.48-.07.64,0,1.34-.07,1.8-.57l8.65-14.53c.17-.29.49-.45.75-.15l1.59,4.3c.11.24.01.46-.16.65-4.92,3.96-5.67,11.47-1.43,16.28,6.49,7.37,18.26,3.7,19.87-5.77.03-.14.16-.15.31-.14Z"/>
  <path class="cls-1" d="M56.8,22.3l-.81-2.8c-2.07-5.24-7.59-8.23-13.15-7.11-.35.07-1.63.54-1.8.44-.44-.85-.81-1.75-1.14-2.64-1.37-3.77-1.21-7.62-5.44-9.54-1.49-.67-5.26-1.47-4.84,1.29.22,1.42,1.59,1.24,2.55,1.44,1.21.25,2.24,1.06,2.85,2.12l-3.2,5.47-14,.02-.85-2c2.36.24,2.82-3.12.39-3.33-1.98-.18-4.27.09-6.28.05-1.01.43-1.47,1.38-.94,2.4.67,1.3,2.11.73,3.28.93l1.33,3.5c-3.08-.69-6.16-.43-8.91,1.13-7.28,4.14-7.88,14.54-1.07,19.44,7.17,5.15,16.93.87,18.31-7.68,1.33-.22,3.34.47,4.31-.63l8.74-14.67.25-.14,1.67,4.49c-.04.36-.9.87-1.17,1.17-4.63,4.97-4.33,12.76,1,17.08,6.51,5.28,16.16,2.15,18.47-5.82.16-.54.18-1.13.45-1.61v-.44c-.04-.09-.05-.15,0-.23v-2.33ZM39.88,30.07c-3.8-3.2-3.96-9.18-.17-12.42.39.94.91,1.85,1.42,2.73.53.91,2.46,4.3,3.13,4.75,1.38.91,2.88-.35,2.5-1.95-.15-.65-2.24-3.58-2.74-4.46-.2-.34-1.55-2.7-1.43-2.85,6.95-2.15,13.26,4.88,10.03,11.52-2.32,4.79-8.66,6.11-12.74,2.68ZM23.06,22.02c-.34-2.07-1.18-3.88-2.44-5.54-.51-.68-1.37-1.22-1.43-2.16h10.54l-4.5,7.65c-.21.18-2.1.16-2.17.05ZM5.21,29.01c-2.55-3.08-2.52-7.54.05-10.59,4.42-5.25,13.09-3.05,14.37,3.66h-8.38c-.62,0-1.33,1.02-1.35,1.63-.01.63.7,1.7,1.35,1.7h8.38c-1.28,6.74-10.03,8.92-14.42,3.6Z"/>
  <polygon class="cls-2" points="56.79 24.85 56.72 24.72 56.79 24.63 56.79 24.85"/>
</svg>