<?xml version="1.0" encoding="UTF-8"?>
<svg id="Capa_1" data-name="Capa 1" xmlns="http://www.w3.org/2000/svg" viewBox="0 0 49.31 49.32">
  <defs>
    <style>
      .cls-1 {
        fill: #6aa239;
      }
    </style>
  </defs>
  <path class="cls-1" d="M46.63,48.98l-1.06.34.02-.21c2.48-.5,4.02-2.81,3.39-5.3-.79-3.15-3.75-3.21-6.4-3.04-2.29-.11-3.15-.65-3.68-3-.49-5.79-4.15-10.59-10.08-11.45l-.11-.19v-9s.05-.13.05-.13c3.77-1.64,3.68-6.02.27-8.11-3.72-2.72-7.43-5.46-11.13-8.2-1.24-.65-2.69-.66-3.95-.04-2.63,2.05-5.33,4.01-8.09,5.89-1.33.97-2.61,1.97-3.89,3.01-.84.69-1.4,1.49-1.72,2.53L0,12.23c.34-1.08.74-1.85,1.59-2.6C5.27,6.38,10.03,3.65,13.84.49c1.34-.66,2.84-.66,4.17.04,3.79,3.15,8.52,5.87,12.19,9.1,2.63,2.32,1.89,6.2-1.3,7.48v9.08c4.85.66,8.49,4.09,9.67,8.79.28,1.14.38,2.43.71,3.53.95,3.2,4.62,1.54,7.01,2.24,3.88,1.15,4.04,6.68.34,8.23Z"/>
  <path class="cls-1" d="M15.1,16.01c-5.56.57-8.42,7.29-4.89,11.68,3.31,4.11,9.8,3.49,12.16-1.23,2.56-5.14-1.6-11.03-7.27-10.45ZM16.23,27.54c-5.57.42-6.35-7.95-.94-8.64,5.92-.76,6.71,8.21.94,8.64ZM15.1,16.01c-5.56.57-8.42,7.29-4.89,11.68,3.31,4.11,9.8,3.49,12.16-1.23,2.56-5.14-1.6-11.03-7.27-10.45ZM16.23,27.54c-5.57.42-6.35-7.95-.94-8.64,5.92-.76,6.71,8.21.94,8.64ZM15.1,16.01c-5.56.57-8.42,7.29-4.89,11.68,3.31,4.11,9.8,3.49,12.16-1.23,2.56-5.14-1.6-11.03-7.27-10.45ZM16.23,27.54c-5.57.42-6.35-7.95-.94-8.64,5.92-.76,6.71,8.21.94,8.64ZM15.1,16.01c-5.56.57-8.42,7.29-4.89,11.68,3.31,4.11,9.8,3.49,12.16-1.23,2.56-5.14-1.6-11.03-7.27-10.45ZM16.23,27.54c-5.57.42-6.35-7.95-.94-8.64,5.92-.76,6.71,8.21.94,8.64ZM15.1,16.01c-5.56.57-8.42,7.29-4.89,11.68,3.31,4.11,9.8,3.49,12.16-1.23,2.56-5.14-1.6-11.03-7.27-10.45ZM16.23,27.54c-5.57.42-6.35-7.95-.94-8.64,5.92-.76,6.71,8.21.94,8.64ZM15.1,16.01c-5.56.57-8.42,7.29-4.89,11.68,3.31,4.11,9.8,3.49,12.16-1.23,2.56-5.14-1.6-11.03-7.27-10.45ZM16.23,27.54c-5.57.42-6.35-7.95-.94-8.64,5.92-.76,6.71,8.21.94,8.64ZM15.1,16.01c-5.56.57-8.42,7.29-4.89,11.68,3.31,4.11,9.8,3.49,12.16-1.23,2.56-5.14-1.6-11.03-7.27-10.45ZM16.23,27.54c-5.57.42-6.35-7.95-.94-8.64,5.92-.76,6.71,8.21.94,8.64ZM15.1,16.01c-5.56.57-8.42,7.29-4.89,11.68,3.31,4.11,9.8,3.49,12.16-1.23,2.56-5.14-1.6-11.03-7.27-10.45ZM16.23,27.54c-5.57.42-6.35-7.95-.94-8.64,5.92-.76,6.71,8.21.94,8.64ZM15.1,16.01c-5.56.57-8.42,7.29-4.89,11.68,3.31,4.11,9.8,3.49,12.16-1.23,2.56-5.14-1.6-11.03-7.27-10.45ZM16.23,27.54c-5.57.42-6.35-7.95-.94-8.64,5.92-.76,6.71,8.21.94,8.64ZM15.1,16.01c-5.56.57-8.42,7.29-4.89,11.68,3.31,4.11,9.8,3.49,12.16-1.23,2.56-5.14-1.6-11.03-7.27-10.45ZM16.23,27.54c-5.57.42-6.35-7.95-.94-8.64,5.92-.76,6.71,8.21.94,8.64ZM15.1,16.01c-5.56.57-8.42,7.29-4.89,11.68,3.31,4.11,9.8,3.49,12.16-1.23,2.56-5.14-1.6-11.03-7.27-10.45ZM16.23,27.54c-5.57.42-6.35-7.95-.94-8.64,5.92-.76,6.71,8.21.94,8.64ZM15.1,16.01c-5.56.57-8.42,7.29-4.89,11.68,3.31,4.11,9.8,3.49,12.16-1.23,2.56-5.14-1.6-11.03-7.27-10.45ZM16.23,27.54c-5.57.42-6.35-7.95-.94-8.64,5.92-.76,6.71,8.21.94,8.64ZM15.1,16.01c-5.56.57-8.42,7.29-4.89,11.68,3.31,4.11,9.8,3.49,12.16-1.23,2.56-5.14-1.6-11.03-7.27-10.45ZM16.23,27.54c-5.57.42-6.35-7.95-.94-8.64,5.92-.76,6.71,8.21.94,8.64ZM15.1,16.01c-5.56.57-8.42,7.29-4.89,11.68,3.31,4.11,9.8,3.49,12.16-1.23,2.56-5.14-1.6-11.03-7.27-10.45ZM16.23,27.54c-5.57.42-6.35-7.95-.94-8.64,5.92-.76,6.71,8.21.94,8.64ZM15.1,16.01c-5.56.57-8.42,7.29-4.89,11.68,3.31,4.11,9.8,3.49,12.16-1.23,2.56-5.14-1.6-11.03-7.27-10.45ZM16.23,27.54c-5.57.42-6.35-7.95-.94-8.64,5.92-.76,6.71,8.21.94,8.64ZM15.1,16.01c-5.56.57-8.42,7.29-4.89,11.68,3.31,4.11,9.8,3.49,12.16-1.23,2.56-5.14-1.6-11.03-7.27-10.45ZM16.23,27.54c-5.57.42-6.35-7.95-.94-8.64,5.92-.76,6.71,8.21.94,8.64ZM15.1,16.01c-5.56.57-8.42,7.29-4.89,11.68,3.31,4.11,9.8,3.49,12.16-1.23,2.56-5.14-1.6-11.03-7.27-10.45ZM16.23,27.54c-5.57.42-6.35-7.95-.94-8.64,5.92-.76,6.71,8.21.94,8.64ZM15.1,16.01c-5.56.57-8.42,7.29-4.89,11.68,3.31,4.11,9.8,3.49,12.16-1.23,2.56-5.14-1.6-11.03-7.27-10.45ZM16.23,27.54c-5.57.42-6.35-7.95-.94-8.64,5.92-.76,6.71,8.21.94,8.64ZM46.29,40.75c-2.39-.7-6.06.96-7.01-2.24-.33-1.1-.43-2.39-.71-3.53-1.18-4.7-4.82-8.13-9.66-8.79v-9.08c3.18-1.28,3.92-5.16,1.29-7.48-3.67-3.23-8.4-5.95-12.19-9.1-1.33-.7-2.83-.7-4.17-.04C10.03,3.65,5.27,6.38,1.59,9.63.74,10.38.34,11.15,0,12.23v.29c.08.31.08.65,0,.96v.29c.45,1.53,1.35,2.77,2.89,3.34v30.91c.1.67.52.99,1.06,1.3h.67c.37-.09,1.16-.74,1.16-1.11v-13.44h5.49l-2.6,12.96c-.04.81.41,1.23,1.06,1.59h.67c1.35-.42,1.16-1.78,1.5-2.9l8.04.02c.22,1.11.16,2.36,1.35,2.88h.67c.72-.29,1.2-.76,1.16-1.59l-2.6-12.96h5.49v13.44c0,.35.75.96,1.06,1.11h.68c.36-.09,1.15-.74,1.15-1.11v-12.96c.71.3,1.04,1.04,1.23,1.72.43,1.57.51,3.21,1.08,4.79,1.14,3.17,3.72,5.75,6.89,6.89.81.29,1.64.42,2.46.67h.96c1.2-.12,2.57-.12,3.76,0h.29l1.06-.34c3.7-1.55,3.54-7.08-.34-8.23ZM12.43,43.54l.63-2.99h5.72s.58,2.99.58,2.99h-6.93ZM13.58,37.66l.64-2.89h3.4s.59,2.89.59,2.89h-4.63ZM26.01,31.88H5.78v-14.84c.44-.07.81-.36,1.19-.59l8.88-6.64.23.06c2.95,2.06,5.77,4.59,8.74,6.58.37.24.77.48,1.19.59v14.84ZM26.56,14.14c-3.24-2.14-6.32-5.15-9.57-7.19-.92-.58-1.27-.58-2.19,0-3.25,2.04-6.33,5.05-9.57,7.19-1.53,1.01-3.13-.8-1.91-2.2L15,3.19c.17-.13.36-.25.58-.29.42-.07.81-.01,1.16.25l11.73,8.79c1.22,1.4-.38,3.21-1.91,2.2ZM44.95,46.43c-5.51.49-9.98-1.23-11.38-6.94-.38-1.55-.45-3.41-1.26-4.81-.72-1.26-1.99-2.25-3.41-2.61v-2.98c2.53.5,4.79,2.05,6.03,4.33,1.86,3.45.57,8.86,5.8,9.9,1.46.29,3.42-.14,4.65.17,1.55.39,1.38,2.78-.43,2.94ZM15.1,16.01c-5.56.57-8.42,7.29-4.89,11.68,3.31,4.11,9.8,3.49,12.16-1.23,2.56-5.14-1.6-11.03-7.27-10.45ZM16.23,27.54c-5.57.42-6.35-7.95-.94-8.64,5.92-.76,6.71,8.21.94,8.64ZM15.1,16.01c-5.56.57-8.42,7.29-4.89,11.68,3.31,4.11,9.8,3.49,12.16-1.23,2.56-5.14-1.6-11.03-7.27-10.45ZM16.23,27.54c-5.57.42-6.35-7.95-.94-8.64,5.92-.76,6.71,8.21.94,8.64ZM15.1,16.01c-5.56.57-8.42,7.29-4.89,11.68,3.31,4.11,9.8,3.49,12.16-1.23,2.56-5.14-1.6-11.03-7.27-10.45ZM16.23,27.54c-5.57.42-6.35-7.95-.94-8.64,5.92-.76,6.71,8.21.94,8.64ZM15.1,16.01c-5.56.57-8.42,7.29-4.89,11.68,3.31,4.11,9.8,3.49,12.16-1.23,2.56-5.14-1.6-11.03-7.27-10.45ZM16.23,27.54c-5.57.42-6.35-7.95-.94-8.64,5.92-.76,6.71,8.21.94,8.64ZM15.1,16.01c-5.56.57-8.42,7.29-4.89,11.68,3.31,4.11,9.8,3.49,12.16-1.23,2.56-5.14-1.6-11.03-7.27-10.45ZM16.23,27.54c-5.57.42-6.35-7.95-.94-8.64,5.92-.76,6.71,8.21.94,8.64ZM15.1,16.01c-5.56.57-8.42,7.29-4.89,11.68,3.31,4.11,9.8,3.49,12.16-1.23,2.56-5.14-1.6-11.03-7.27-10.45ZM16.23,27.54c-5.57.42-6.35-7.95-.94-8.64,5.92-.76,6.71,8.21.94,8.64ZM15.1,16.01c-5.56.57-8.42,7.29-4.89,11.68,3.31,4.11,9.8,3.49,12.16-1.23,2.56-5.14-1.6-11.03-7.27-10.45ZM16.23,27.54c-5.57.42-6.35-7.95-.94-8.64,5.92-.76,6.71,8.21.94,8.64ZM15.1,16.01c-5.56.57-8.42,7.29-4.89,11.68,3.31,4.11,9.8,3.49,12.16-1.23,2.56-5.14-1.6-11.03-7.27-10.45ZM16.23,27.54c-5.57.42-6.35-7.95-.94-8.64,5.92-.76,6.71,8.21.94,8.64ZM15.1,16.01c-5.56.57-8.42,7.29-4.89,11.68,3.31,4.11,9.8,3.49,12.16-1.23,2.56-5.14-1.6-11.03-7.27-10.45ZM16.23,27.54c-5.57.42-6.35-7.95-.94-8.64,5.92-.76,6.71,8.21.94,8.64ZM15.1,16.01c-5.56.57-8.42,7.29-4.89,11.68,3.31,4.11,9.8,3.49,12.16-1.23,2.56-5.14-1.6-11.03-7.27-10.45ZM16.23,27.54c-5.57.42-6.35-7.95-.94-8.64,5.92-.76,6.71,8.21.94,8.64ZM15.1,16.01c-5.56.57-8.42,7.29-4.89,11.68,3.31,4.11,9.8,3.49,12.16-1.23,2.56-5.14-1.6-11.03-7.27-10.45ZM16.23,27.54c-5.57.42-6.35-7.95-.94-8.64,5.92-.76,6.71,8.21.94,8.64ZM15.1,16.01c-5.56.57-8.42,7.29-4.89,11.68,3.31,4.11,9.8,3.49,12.16-1.23,2.56-5.14-1.6-11.03-7.27-10.45ZM16.23,27.54c-5.57.42-6.35-7.95-.94-8.64,5.92-.76,6.71,8.21.94,8.64ZM15.1,16.01c-5.56.57-8.42,7.29-4.89,11.68,3.31,4.11,9.8,3.49,12.16-1.23,2.56-5.14-1.6-11.03-7.27-10.45ZM16.23,27.54c-5.57.42-6.35-7.95-.94-8.64,5.92-.76,6.71,8.21.94,8.64ZM15.1,16.01c-5.56.57-8.42,7.29-4.89,11.68,3.31,4.11,9.8,3.49,12.16-1.23,2.56-5.14-1.6-11.03-7.27-10.45ZM16.23,27.54c-5.57.42-6.35-7.95-.94-8.64,5.92-.76,6.71,8.21.94,8.64ZM15.1,16.01c-5.56.57-8.42,7.29-4.89,11.68,3.31,4.11,9.8,3.49,12.16-1.23,2.56-5.14-1.6-11.03-7.27-10.45ZM16.23,27.54c-5.57.42-6.35-7.95-.94-8.64,5.92-.76,6.71,8.21.94,8.64ZM15.1,16.01c-5.56.57-8.42,7.29-4.89,11.68,3.31,4.11,9.8,3.49,12.16-1.23,2.56-5.14-1.6-11.03-7.27-10.45ZM16.23,27.54c-5.57.42-6.35-7.95-.94-8.64,5.92-.76,6.71,8.21.94,8.64ZM15.1,16.01c-5.56.57-8.42,7.29-4.89,11.68,3.31,4.11,9.8,3.49,12.16-1.23,2.56-5.14-1.6-11.03-7.27-10.45ZM16.23,27.54c-5.57.42-6.35-7.95-.94-8.64,5.92-.76,6.71,8.21.94,8.64Z"/>
  <path class="cls-1" d="M45.28,49.32h-3.76c.1-.16.37-.1.53-.1.9-.01,1.8,0,2.7,0,.16,0,.43-.06.53.1Z"/>
  <path class="cls-1" d="M0,13.48v-.96c.16.19.16.75,0,.96Z"/>
  <path class="cls-1" d="M15.1,16.01c-5.56.57-8.42,7.29-4.89,11.68,3.31,4.11,9.8,3.49,12.16-1.23,2.56-5.14-1.6-11.03-7.27-10.45ZM16.23,27.54c-5.57.42-6.35-7.95-.94-8.64,5.92-.76,6.71,8.21.94,8.64Z"/>
  <path class="cls-1" d="M15.1,16.01c-5.56.57-8.42,7.29-4.89,11.68,3.31,4.11,9.8,3.49,12.16-1.23,2.56-5.14-1.6-11.03-7.27-10.45ZM16.23,27.54c-5.57.42-6.35-7.95-.94-8.64,5.92-.76,6.71,8.21.94,8.64Z"/>
</svg>