<?xml version="1.0" encoding="UTF-8"?>
<svg id="Capa_1" data-name="Capa 1" xmlns="http://www.w3.org/2000/svg" viewBox="0 0 49.34 49.32">
  <defs>
    <style>
      .cls-1 {
        fill: #6aa239;
      }
    </style>
  </defs>
  <path class="cls-1" d="M33.01.07s-.03.01-.05.02v-.09c.06.01.07.04.05.07Z"/>
  <path class="cls-1" d="M46.45,19.89c2.61,4.38-2.75,9.01-6.75,5.88-1.63-1.57-3.16-3.28-4.85-4.76l-13.8,13.77.05.24,4.73,4.72c3.03,4.02-1.6,9.3-5.93,6.7-.98,2.11-3.11,3.32-5.44,2.74-1.87-.47-2.92-2.23-4.3-3.41-1.16.96-2.07,2.14-3.66,2.39-3.2.5-5.83-2.12-5.33-5.33.25-1.59,1.43-2.49,2.39-3.66-1.18-1.38-2.94-2.43-3.41-4.3-.58-2.33.62-4.46,2.74-5.44-2.59-4.36,2.67-8.97,6.7-5.92l4.72,4.72.24.05,13.78-13.8-.09-.18-4.68-4.67c-3.14-4.02,1.52-9.36,5.88-6.75.69-1.41,1.88-2.6,3.52-2.79l-.2.23c-1.57.25-2.47,1.47-3.28,2.71-4.29-2.43-8.77,2.53-5.77,6.48l4.68,4.67c.07.12.14.25.08.4l-13.75,13.8c-.19.14-.45.08-.61-.08l-4.64-4.65c-2.25-1.77-5.53-.89-6.7,1.68-.66,1.45-.35,2.75.27,4.15-2.92,1.62-3.86,4.65-1.58,7.3.82.76,1.57,1.55,2.27,2.39-.37.54-.79,1.05-1.26,1.52-3.66,4.22,1.95,9.83,6.17,6.17.47-.47.98-.89,1.52-1.25.84.69,1.64,1.44,2.39,2.26,2.66,2.29,5.68,1.34,7.31-1.58,1.39.63,2.68.93,4.13.27,2.57-1.16,3.46-4.45,1.69-6.7l-4.68-4.67c-.13-.17-.18-.42-.04-.6l13.67-13.64.25-.09c1.72,1.5,3.37,3.09,4.95,4.77,2.24,1.82,5.57.94,6.74-1.65.66-1.46.35-2.74-.27-4.14,1.28-.76,2.3-1.72,2.77-3.17l.27-.2c-.5,1.57-1.39,2.72-2.89,3.42Z"/>
  <path class="cls-1" d="M45.78,10.15c.71-.92,1.65-1.59,2.09-2.71,1.53-3.88-2.22-7.59-6.05-5.95-1.08.47-1.73,1.36-2.64,2.06-1.5-1.33-2.59-3.1-4.68-3.55h-1.13c-.14,0-.26.02-.36.07-.02,0-.03.01-.05.02-1.64.19-2.83,1.38-3.52,2.79-4.36-2.61-9.02,2.73-5.88,6.75l4.68,4.67.09.18-13.78,13.8-.24-.05-4.72-4.72c-4.03-3.05-9.29,1.56-6.7,5.92-2.12.98-3.32,3.11-2.74,5.44.47,1.87,2.23,2.92,3.41,4.3-.96,1.17-2.14,2.07-2.39,3.66-.5,3.21,2.13,5.83,5.33,5.33,1.59-.25,2.5-1.43,3.66-2.39,1.38,1.18,2.43,2.94,4.3,3.41,2.33.58,4.46-.63,5.44-2.74,4.33,2.6,8.96-2.68,5.93-6.7l-4.73-4.72-.05-.24,13.8-13.77c1.69,1.48,3.22,3.19,4.85,4.76,4,3.13,9.36-1.5,6.75-5.88,1.5-.7,2.39-1.85,2.89-3.42v-1.64c-.46-2.08-2.23-3.19-3.56-4.68ZM43.62,3.98c.9-.02,1.7.75,1.71,1.65.02,1.1-.98,1.64-1.64,2.36-.21,0-2.05-2-2.34-2.27.57-.68,1.32-1.72,2.27-1.74ZM33.41,2.91c.66-.11,1.08.12,1.57.51l10.94,10.93c1.44,1.56-.35,3.72-2.12,2.6l-11.38-11.36c-.78-.93-.2-2.48.99-2.68ZM41.48,23.5l-15.61-15.6c-.88-.91-.33-2.57.9-2.77.57-.1,1.04.01,1.47.41l15.56,15.55c1.34,1.59-.66,3.68-2.32,2.41ZM21.57,44.1c-5.48-5.13-10.66-10.61-16.02-15.87-.91-.9-.32-2.57.89-2.78.6-.1,1,.05,1.47.41l15.56,15.56c1.19,1.36-.24,3.34-1.9,2.68ZM14.51,46.05l-11.18-11.17c-.83-.88-.38-2.53.79-2.78.5-.1,1.1-.05,1.48.31l11.32,11.32c1.18,1.54-.7,3.56-2.41,2.32ZM4.63,44.94c-1.52-1.23-.03-2.74,1.03-3.6.17-.04,2.04,1.99,2.34,2.27-.81,1.03-2.01,2.43-3.37,1.33ZM32.72,18.98l-13.93,13.73-2.17-2.17v-.19l13.8-13.78c.08-.02.12.05.18.09.22.15,1.92,1.85,2.07,2.07.06.09.14.13.05.25Z"/>
  <polygon class="cls-1" points="33.44 0 32.96 .09 32.96 0 33.44 0"/>
</svg>