<?xml version="1.0" encoding="UTF-8"?>
<svg id="Capa_1" data-name="Capa 1" xmlns="http://www.w3.org/2000/svg" viewBox="0 0 48.39 48.39">
  <defs>
    <style>
      .cls-1 {
        fill: #6aa239;
      }
    </style>
  </defs>
  <polygon class="cls-1" points="11.05 7.86 11.05 33.42 10.86 33.33 10.86 7.97 11.05 7.86"/>
  <path class="cls-1" d="M14.97,37.34l-.13.18c-1.82-.37-3.6-2.15-3.97-3.97l.18-.13c0,1.48,2.44,3.92,3.92,3.92Z"/>
  <path class="cls-1" d="M11.05,7.86c.37.01.7.23,1,.65l1.27,1.36c.97,1.13,2.61,1.44,3.58.18,1.04-1.36.03-2.73-1.06-3.75-1.98-1.83-3.9-3.7-5.76-5.63-1.47-1.05-2.57-.18-3.7.92C4.39,3.62,2.43,5.66.48,7.7c-.1.36-.26.57-.48.63.17-.4.3-.81.61-1.14C2.85,5.25,4.87,2.53,7.13.67c.98-.81,2.02-.91,3.07-.14,1.95,2.32,4.91,4.43,6.76,6.76,1.74,2.19-.92,4.97-3.21,3.21-.93-.72-1.74-1.92-2.7-2.64Z"/>
  <path class="cls-1" d="M17.07,16.35c.11,0,1.3-.43,1.68-.46,1.59-.14,2.96.41,4.16,1.39,2.97-2.73,7.87-1.27,8.79,2.67.34,1.47.29,6.71.14,8.37-.18,2.06-3.2,2.16-3.4-.1-.22-2.4.18-5.1-.02-7.54-.51-2.1-3.53-1.91-3.83.19-.32,2.26.2,5.13-.02,7.45-.19,2.02-3.17,2.13-3.41-.1-.24-2.29.35-5.35-.02-7.54-.34-2.02-3.51-1.98-3.83.19-.32,2.29.21,5.2-.02,7.54-.19,1.93-3.16,2.12-3.4-.29.23-3.43-.32-7.29,0-10.67.08-.87.55-1.68,1.48-1.82,1.06-.17,1.37.65,1.7.72Z"/>
  <polygon class="cls-1" points="14.97 37.34 40.53 37.34 40.44 37.53 15.09 37.53 14.97 37.34"/>
  <path class="cls-1" d="M37.84,14.19c.74-1.01-.84-2.01-1.47-1-.16.26-.17.65-.35.97-.83,1.4-3.16.72-2.93-1.13.5-4.02,6.53-4.65,7.89-.66.9,2.63-.78,4.01-2.43,5.69h1.65c.32,0,.94.62,1.07.92.48,1.21-.31,2.19-1.54,2.3-1.17.1-4.06.14-5.19-.01-1.3-.18-1.9-1.55-1.13-2.64,1.03-1.48,3.38-2.97,4.43-4.44Z"/>
  <path class="cls-1" d="M47.76,41.21c-1.85,2.3-4.71,4.38-6.66,6.67l-.94.51-.02-.2.84-.46c1.94-1.97,3.91-3.91,5.92-5.81,1.8-1.89,1.71-2.78-.07-4.65-2.01-1.85-3.96-3.75-5.86-5.7-2.02-1.54-4.53.89-2.92,2.91.83.9,1.68,1.77,2.55,2.63l-.07.23c-1.13-1.53-4.22-3.11-2.85-5.36.75-1.22,2.33-1.43,3.42-.55,1.9,2.3,4.99,4.45,6.76,6.76.77.99.67,2.07-.1,3.02Z"/>
  <path class="cls-1" d="M21.8.04L39.73,0c4.58.37,8.21,3.99,8.65,8.56v17.85c-.44,2.65-3.99,2.73-4.51.07l-.03-17.55c-.23-2.34-2.05-4.15-4.39-4.39l-17.72-.04c-2.43-.69-2.36-3.87.07-4.47Z"/>
  <path class="cls-1" d="M47.76,41.21c-1.85,2.3-4.71,4.38-6.66,6.67l-.94.51h-1.14c-1.15-.44-1.88-1.36-1.66-2.65.24-1.39,2.47-2.71,3.27-3.87H14.69c-3.6,0-8.17-4.57-8.17-8.17V7.86c-.17-.05-.19.06-.29.14-.88.68-2.35,2.78-3.37,2.95-1.43.24-2.36-.37-2.86-1.68v-.94c.17-.4.3-.81.61-1.14C2.85,5.25,4.87,2.53,7.13.67c.98-.81,2.02-.91,3.07-.14,1.95,2.32,4.91,4.43,6.76,6.76,1.74,2.19-.92,4.97-3.21,3.21-.93-.72-1.74-1.92-2.7-2.64v25.56c0,1.48,2.44,3.92,3.92,3.92h25.56c-1.13-1.53-4.22-3.11-2.85-5.36.75-1.22,2.33-1.43,3.42-.55,1.9,2.3,4.99,4.45,6.76,6.76.77.99.67,2.07-.1,3.02Z"/>
  <path class="cls-1" d="M48.38,8.57v17.85c-.44,2.65-3.99,2.73-4.51.07l-.03-17.55c-.23-2.34-2.05-4.15-4.39-4.39l-17.72-.04c-2.43-.69-2.36-3.87.07-4.47L39.73,0c4.58.37,8.21,3.99,8.65,8.56Z"/>
  <path class="cls-1" d="M31.84,28.32c-.18,2.06-3.2,2.16-3.4-.1-.22-2.4.18-5.1-.02-7.54-.51-2.1-3.53-1.91-3.83.19-.32,2.26.2,5.13-.02,7.45-.19,2.02-3.17,2.13-3.41-.1-.24-2.29.35-5.35-.02-7.54-.34-2.02-3.51-1.98-3.83.19-.32,2.29.21,5.2-.02,7.54-.19,1.93-3.16,2.12-3.4-.29.23-3.43-.32-7.29,0-10.67.08-.87.55-1.68,1.48-1.82,1.06-.17,1.37.65,1.7.72.11,0,1.3-.43,1.68-.46,1.59-.14,2.96.41,4.16,1.39,2.97-2.73,7.87-1.27,8.79,2.67.34,1.47.29,6.71.14,8.37Z"/>
  <path class="cls-1" d="M39.73,21.28c-1.17.1-4.06.14-5.19-.01-1.3-.18-1.9-1.55-1.13-2.64,1.03-1.48,3.38-2.97,4.43-4.44.74-1.01-.84-2.01-1.47-1-.16.26-.17.65-.35.97-.83,1.4-3.16.72-2.93-1.13.5-4.02,6.53-4.65,7.89-.66.9,2.63-.78,4.01-2.43,5.69h1.65c.32,0,.94.62,1.07.92.48,1.21-.31,2.19-1.54,2.3Z"/>
</svg>