<?xml version="1.0" encoding="UTF-8"?>
<svg id="Capa_1" data-name="Capa 1" xmlns="http://www.w3.org/2000/svg" viewBox="0 0 98.67 123.32">
  <defs>
    <style>
      .cls-1 {
        fill: #fff;
      }
    </style>
  </defs>
  <path class="cls-1" d="M51.51,0v31.48c.93.25,1.84.61,2.69,1.09l.1.04.13-.04c.24-.07.49-.13.77-.19.51-.12.99-.18,1.46-.18.16,0,.33,0,.49.02,1.16.05,2.07.32,2.8.54.31.09.57.17.84.23,1.35-.57,6.07-2.44,8.73-1.94l7.11-7.2C66.59,12.1,55.98,3.44,51.51,0"/>
  <path class="cls-1" d="M73.88,40.29c5.21,2.01,5.79,4.43,5.91,7.75.92.65,1.67,1.5,2.24,2.45l7.82-7.92c-2.85-5.11-6.19-9.96-9.71-14.43l-11.14,11.02c.09.07,2.26.07,4.89,1.13"/>
  <path class="cls-1" d="M98.66,72.36l-12.61,12.77c-.13.45-.31.89-.54,1.3-.75,1.33-1.97,2.27-3.49,2.77l-.48.49c.25,1.38,0,2.45-.49,3.26.03,1.07-.32,2.33-1.41,3.71,1.67,2.3,1.5,5.02-.47,7.31-1.41,1.65-3.21,2.74-5.34,3.26-1.21.29-2.47.47-3.77.54.39.96.89,1.88,1.49,2.76.29.42.55.59,1.03.68,1.07.2,2.14.41,3.21.61l.83.16,3.15.61c11.5-9.24,18.9-23.61,18.9-39.75,0-.17,0-.33,0-.5"/>
  <path class="cls-1" d="M82.34,59.23c.2.44.32.84.41,1.14l.04.12c1.04,3.47,1.84,7.55.12,11.82.16.52.32,1.04.48,1.55.49,1.59.96,3.13,1.48,4.62l13.18-13.35c-.94-5.99-2.91-11.83-5.54-17.41l-10.5,10.63c.04.18.14.43.34.86"/>
  <path class="cls-1" d="M22.54,97.21c-1.13-1.33-1.66-2.67-1.92-3.8-2.02-.49-3.63-2.72-4.79-5.02L.01,72.37c0,.17-.01.33-.01.49,0,18.52,9.74,34.71,24.26,43.5l.49-.58.19-.22c.28-.33.55-.66.84-.98,1.26-1.45,2.06-3.06,2.46-4.93.47-2.24,1-4.59,1.58-7.08l-1.61-1.63c-2.23-.6-4.21-1.87-5.67-3.72"/>
  <path class="cls-1" d="M12.6,75.77c-2.89-4.06-2.78-9.91.22-13.87-.51-2.36-.27-4.72.61-6.8l-6.72-6.81c-2.8,5.56-4.93,11.27-5.97,16.97l11.83,11.98c0-.48,0-.96.04-1.46"/>
  <path class="cls-1" d="M17.77,50c.61-5.86,5.19-10.6,10.54-10.99.1-.22.22-.41.33-.62l-9.36-9.48c-3.53,4.51-6.91,9.32-9.83,14.32l7.36,7.46c.31-.24.62-.47.96-.68"/>
  <path class="cls-1" d="M22.78,24.6l9.56,9.69c1.57-.99,3.41-1.56,5.4-1.56.59,0,1.19.05,1.78.15.52.09,1.2.23,1.91.5,1.7-1.24,3.67-2,5.72-2.23V.17c-4.36,3.69-14.57,12.74-24.38,24.43"/>
  <path class="cls-1" d="M82.69,82.02c-.13-.32-.24-.64-.36-.96-1.01-2.64-1.79-5.36-2.63-8.06-.13-.42-.33-.82-.11-1.29,1.65-3.4,1.1-6.82.07-10.24-.06-.19-.11-.37-.18-.56-.03-.08-.06-.17-.1-.25-.71-1.53-1.06-2.86-.04-4.6.59-.99.61-2.1.24-3.1-.4-1.08-1.25-2.04-2.39-2.59-.58-.28-.82-.51-.73-1.25.16-1.26-.09-2.43-.68-3.39-.59.26-1.12.51-1.91.89-.98.47-2.05.7-3.13.76-.03.56-.32,1.08-.8,1.36-1.25.74-1.83,1.1-3.07,1.9-.95.6-2.02.91-3.12,1.03.04.6-.23,1.18-.72,1.52-1.25.85-1.89,1.28-3.2,2.16-1.02.67-2.2,1.01-3.42,1.16.08.61-.18,1.23-.68,1.59-1.3.93-1.88,1.38-3.13,2.41-.35.28-.72.52-1.11.73-.68.38-1.41.66-2.17.84l.04.09c.15.59-.03,1.23-.47,1.64-.73.7-1.22,1.19-1.76,1.73-.32.33-.66.68-1.08,1.12-.88.92-1.97,1.57-3.12,1.95l.08.16c.18.56.05,1.18-.33,1.63-1.07,1.24-1.57,1.84-2.6,3.1-.12.14-.24.27-.37.4-.67.7-1.45,1.24-2.3,1.59l.1.19c.2.5.14,1.08-.15,1.53-.34.53-.59.93-.82,1.32-.29.49-.54.96-.91,1.65-.49.94-1.26,1.66-2.12,2.13.08.1.15.21.21.33.23.46.24.99.03,1.46-.59,1.32-.88,2-1.52,3.45-.57,1.28-1.59,2.19-2.72,2.76-1,.51-2.12.76-3.25.82-.15,0-.3.02-.46.02-.61,0-1.22-.06-1.82-.19-.14-.03-.25-.05-.38-.08.02.83-.03,2.47,1.4,4.15h0c1.45,1.87,3.64,2.94,6.08,2.94.57,0,1.15-.07,1.75-.19.11-.02.22-.03.33-.06.28-.07.5-.11.66-.11.45,0,.47.3.28,1.08-.02.1-.05.19-.07.29-.51,2.11-1.01,4.22-1.49,6.33-.38,1.67-.76,3.35-1.12,5.03-.52,2.46-1.59,4.58-3.21,6.45-.33.38-.66.78-.99,1.16,6.04,3.11,12.79,4.97,19.93,5.29.72.03,1.45.07,2.18.07s1.46-.02,2.18-.05c9-.4,17.38-3.28,24.5-7.98-1.34-.26-2.67-.53-4.01-.77-1.32-.24-2.33-.89-3.12-2.04-1.48-2.14-2.41-4.48-2.87-7.05-.02-.12-.06-.23-.08-.36-.1-.61.03-.73.35-.73.1,0,.23.01.37.03.13.01.25,0,.38.02.59.05,1.18.09,1.77.09,1.43,0,2.85-.15,4.26-.49,1.44-.35,2.66-1.07,3.64-2.21.92-1.07,1.09-2.11.22-3.21-1.1-1.42-.98-2.6.1-3.92.25-.31.5-.65.63-1.01.16-.43.16-.9-.19-1.42-.12-.18-.03-.3.11-.39,1.3-.76.75-1.75.33-2.73-.11-.26-.28-.5-.35-.77-.33-1.25.18-1.94,1.44-1.99.4-.02.8-.02,1.19-.08,2.28-.31,3.38-2.04,2.49-4.22"/>
  <path class="cls-1" d="M24.63,58.6c.24-.48.52-.94.87-1.36,1.04-1.26,1.61-1.92,2.71-3.13.42-.46,1.05-.64,1.64-.47.37-1.2,1.01-2.32,1.94-3.22,1.17-1.13,1.81-1.72,3.04-2.79.46-.4,1.09-.51,1.65-.29l.06.03.07-.19c.07-.16.16-.31.24-.46.47-.89,1.11-1.7,1.94-2.34.79-.61,1.37-1.04,2.01-1.5.4-.28.81-.57,1.32-.93.48-.33,1.11-.38,1.64-.11l.13.09c.58-1.09,1.44-2.08,2.6-2.75.24-.14.46-.26.67-.38,1.04-.58,1.81-.97,3.04-1.57.42-.2.89-.2,1.31-.02.1.04.2.09.3.15l.17.15c.44-.6.99-1.14,1.63-1.59-.19-.05-.39-.12-.62-.23l-.12-.04c-.44-.26-.89-.46-1.36-.64-.99-.38-2.02-.58-3.06-.58-.43,0-.87.04-1.3.11-1.61.25-3.18.95-4.5,2.12-.34.3-.63.49-.96.49-.21,0-.43-.08-.69-.25-.6-.4-1.31-.59-2.02-.71-.43-.07-.85-.11-1.26-.11-1.06,0-2.06.25-2.96.68-1.65.78-2.95,2.22-3.66,4.14-.07.18-.14.34-.2.53-.12.41-.08,1.02-.69,1.02l-.21-.02c-.33-.06-.66-.09-1-.09-3.74,0-7.68,3.52-8.02,8.34-.07,1.04-.5,1.57-1.33,2.07-.17.1-.32.23-.48.34-1.65,1.15-2.75,2.78-3.16,4.64-.29,1.29-.26,2.67.14,4.06.21.73.1,1.17-.39,1.72-2.5,2.8-2.68,7.26-.5,10.3.01-.02.02-.05.03-.07.74-1.57,1.15-2.39,1.97-3.93.28-.54.83-.85,1.41-.86.17-1.37.57-2.71,1.28-3.88.5-.82.88-1.43,1.29-2.04.32-.48.65-.97,1.07-1.58.35-.51.95-.76,1.54-.68.16-.75.42-1.48.77-2.16"/>
  <g>
    <path class="cls-1" d="M69.72,41.24c-1.88-.49-4.07-.33-5.87.46-1.01.45-1.52.68-2.51,1.15,1.76.8,2.71,1.14,4.82,2.06,2.2.96,5.08,1.15,7.04.2,1.34-.65,2.03-.96,3.46-1.53-2.83-1.33-4.29-1.65-6.94-2.33"/>
    <path class="cls-1" d="M63.35,41.17c1.81-.77,3-1.91,3.29-3.19.41-1.8.71-2.72,1.77-5.37-1.59.42-2.39.63-3.99,1.09-2.33.68-4.03,2.81-4.01,4.65.02,1.76.09,2.47.41,3.94,1-.47,1.51-.69,2.53-1.13"/>
    <path class="cls-1" d="M55.94,45.64c-.98.54-1.46.82-2.43,1.39,1.79.87,2.77,1.25,5.08,2.22,2.41,1.02,5.62,1.12,7.43-.05,1.24-.8,1.86-1.19,3.13-1.93-3.17-1.26-4.68-1.59-7.41-2.32-1.93-.52-4.07-.28-5.8.68"/>
    <path class="cls-1" d="M52.97,46.42c.97-.57,1.46-.84,2.43-1.38,1.74-.95,2.81-2.34,2.98-3.82.24-2.09.44-3.15,1.1-5.97-1.57.54-2.36.82-3.9,1.43-2.25.89-3.56,3.28-3.33,5.31.22,1.95.32,2.76.71,4.43"/>
    <path class="cls-1" d="M48.31,50.33c-.88.63-1.32.96-2.17,1.64,1.72.87,2.62,1.26,4.93,2.22,2.42,1,5.97,1.02,7.88-.25,1.31-.87,1.94-1.3,3.2-2.15-3.68-1.25-5.29-1.61-8.12-2.37-2-.54-4.15-.21-5.71.92"/>
    <path class="cls-1" d="M45.6,51.32c.86-.67,1.3-1,2.18-1.63,1.57-1.12,2.65-2.72,2.73-4.38.11-2.36.2-3.56.38-6.58-1.48.71-2.2,1.09-3.61,1.9-2.06,1.18-2.99,3.83-2.63,5.96.35,2.04.47,2.92.95,4.73"/>
    <path class="cls-1" d="M41.62,55.91c-.8.76-1.19,1.14-1.96,1.93,1.73.92,2.61,1.34,4.76,2.26,2.24.97,5.33.61,7.17-.91,1.26-1.04,1.9-1.54,3.22-2.48-3.93-1.14-5.36-1.44-8.01-2.13-1.87-.49-3.77-.02-5.18,1.32"/>
    <path class="cls-1" d="M39.09,57.13c.77-.78,1.17-1.16,1.97-1.91,1.42-1.33,2.22-3.17,2.17-4.97-.08-2.54,0-3.79-.19-6.92-1.33.92-1.98,1.39-3.26,2.38-1.87,1.44-2.62,4.13-2.07,6.33.52,2.11.76,3.09,1.39,5.1"/>
    <path class="cls-1" d="M35.61,62.32c-.71.84-1.06,1.27-1.75,2.14,1.74.98,2.61,1.45,4.6,2.37,2.08.97,4.79.41,6.45-1.34,1.13-1.19,1.71-1.78,2.9-2.91-3.47-.87-4.79-1.16-7.32-1.84-1.79-.49-3.6.08-4.87,1.58"/>
    <path class="cls-1" d="M33.24,63.69c.69-.86,1.04-1.28,1.76-2.12,1.27-1.49,1.89-3.57,1.66-5.52-.33-2.76-.4-4.1-.77-7.16-1.22,1.06-1.81,1.61-2.97,2.74-1.7,1.65-2.23,4.38-1.49,6.65.71,2.18,1.04,3.25,1.82,5.41"/>
    <path class="cls-1" d="M29.93,69.36c-.69.92-1.02,1.39-1.66,2.33,1.75.82,2.67,1.25,4.66,2.15,2.08.95,4.41.42,5.92-1.43,1.03-1.26,1.56-1.89,2.63-3.13-3.03-.69-4.26-.99-6.67-1.71-1.71-.51-3.64.15-4.87,1.78"/>
    <path class="cls-1" d="M27.63,70.97c.64-.96.98-1.43,1.67-2.36,1.24-1.66,1.87-3.96,1.47-6.03-.57-2.93-.79-4.35-1.37-7.34-1.09,1.2-1.62,1.81-2.66,3.07-1.51,1.84-1.86,4.8-1.06,7.16.76,2.27,1.11,3.37,1.95,5.5"/>
    <path class="cls-1" d="M25,77.01c-.56,1.01-.84,1.52-1.39,2.56,1.79.52,2.75.78,4.95,1.49,2.3.75,4.69.16,5.65-1.68.66-1.25,1.01-1.86,1.79-3.1-2.84-.71-4.16-1.07-6.62-1.58-1.74-.37-3.39.53-4.39,2.31"/>
    <path class="cls-1" d="M22.93,78.97c.55-1.05.83-1.57,1.4-2.59,1.01-1.81,1.33-4.1.88-6.21-.64-2.99-.89-4.59-1.57-7.76-.96,1.38-1.42,2.09-2.31,3.54-1.3,2.13-1.46,5.42-.6,7.78.83,2.26,1.22,3.27,2.19,5.24"/>
    <path class="cls-1" d="M20.56,85.5c-.57,1.13-.86,1.71-1.46,2.88,1.77.31,2.78.42,5.23.94,2.56.54,5.5-.36,6.43-2.47.63-1.44.93-2.13,1.53-3.46-3.24-.67-4.69-.84-7.29-.98-1.84-.1-3.42,1.08-4.43,3.09"/>
    <path class="cls-1" d="M20.57,78.53c-.75-2.91-1.06-4.48-1.87-7.94-.81,1.53-1.2,2.3-1.94,3.86-1.08,2.28-1.07,5.78-.27,8.18.77,2.3,1.1,3.27,1.97,5.21.59-1.18.87-1.75,1.44-2.89,1-2.01,1.2-4.35.67-6.41"/>
  </g>
</svg>