<?xml version="1.0" encoding="UTF-8"?>
<svg id="Capa_1" data-name="Capa 1" xmlns="http://www.w3.org/2000/svg" xmlns:xlink="http://www.w3.org/1999/xlink" viewBox="0 0 287.31 110.31">
  <defs>
    <style>
      .cls-1 {
        filter: url(#drop-shadow-2);
      }

      .cls-2 {
        fill: #fff;
      }
    </style>
    <filter id="drop-shadow-2" x="-6.63" y="-6.84" width="300" height="124" filterUnits="userSpaceOnUse">
      <feOffset dx="0" dy="0"/>
      <feGaussianBlur result="blur" stdDeviation="2"/>
      <feFlood flood-color="#016801" flood-opacity=".1"/>
      <feComposite in2="blur" operator="in"/>
      <feComposite in="SourceGraphic"/>
    </filter>
  </defs>
  <g class="cls-1">
    <g>
      <path class="cls-2" d="M46.08,0v28.16c.84.22,1.65.55,2.41.97l.09.04.12-.03c.22-.06.44-.12.69-.17.46-.11.89-.16,1.31-.16.15,0,.29,0,.44.02,1.04.04,1.85.29,2.51.48.27.08.51.15.75.21,1.21-.51,5.43-2.19,7.81-1.74l6.36-6.44C59.57,10.82,50.07,3.08,46.08,0"/>
      <path class="cls-2" d="M66.09,36.04c4.66,1.79,5.18,3.97,5.29,6.94.83.58,1.49,1.34,2,2.19l7-7.09c-2.55-4.58-5.54-8.91-8.69-12.91l-9.97,9.85c.08.06,2.03.06,4.37,1.01"/>
      <path class="cls-2" d="M88.25,64.73l-11.28,11.43c-.11.4-.27.8-.48,1.17-.67,1.19-1.76,2.03-3.12,2.48l-.43.44c.22,1.23,0,2.2-.44,2.92.02.95-.28,2.08-1.26,3.32,1.49,2.06,1.34,4.49-.42,6.54-1.26,1.47-2.87,2.45-4.78,2.91-1.08.26-2.21.42-3.37.49.35.86.79,1.68,1.34,2.47.26.37.49.53.92.6.96.18,1.91.36,2.87.55l.75.15,2.82.55c10.29-8.27,16.9-21.12,16.9-35.56,0-.15,0-.3,0-.44"/>
      <path class="cls-2" d="M73.66,52.98c.18.39.29.75.36,1.02l.03.11c.93,3.1,1.65,6.76.11,10.57.14.46.28.93.43,1.39.43,1.43.86,2.8,1.32,4.13l11.79-11.94c-.84-5.36-2.6-10.58-4.96-15.57l-9.39,9.51c.03.16.12.39.3.77"/>
      <path class="cls-2" d="M20.16,86.96c-1.01-1.19-1.49-2.39-1.72-3.4-1.81-.44-3.25-2.43-4.28-4.49L0,64.73c0,.15,0,.29,0,.44,0,16.57,8.71,31.05,21.7,38.91l.44-.52.17-.2c.25-.29.5-.59.75-.88,1.12-1.29,1.84-2.74,2.2-4.41.42-2,.9-4.11,1.42-6.33l-1.44-1.46c-1.99-.53-3.77-1.68-5.08-3.32"/>
      <path class="cls-2" d="M11.27,67.77c-2.59-3.64-2.49-8.87.2-12.41-.45-2.11-.24-4.22.55-6.08l-6.02-6.09c-2.51,4.97-4.41,10.08-5.34,15.18l10.58,10.72c0-.43,0-.86.03-1.31"/>
      <path class="cls-2" d="M15.9,44.72c.55-5.24,4.65-9.48,9.43-9.83.09-.2.2-.37.29-.56l-8.37-8.48c-3.16,4.03-6.18,8.34-8.79,12.81l6.58,6.67c.27-.21.56-.42.86-.61"/>
      <path class="cls-2" d="M20.37,22.01l8.55,8.66c1.41-.89,3.05-1.39,4.83-1.39.53,0,1.06.04,1.59.13.47.08,1.07.2,1.71.45,1.52-1.11,3.28-1.79,5.12-2V.15c-3.9,3.3-13.03,11.4-21.81,21.85"/>
      <path class="cls-2" d="M73.97,73.37c-.12-.28-.22-.57-.33-.86-.9-2.37-1.6-4.79-2.35-7.21-.12-.38-.3-.74-.09-1.15,1.47-3.04.99-6.1.07-9.16-.05-.17-.1-.33-.16-.5-.03-.08-.05-.15-.09-.23-.63-1.37-.95-2.56-.03-4.12.52-.89.55-1.88.22-2.78-.35-.97-1.12-1.83-2.14-2.32-.52-.25-.74-.46-.65-1.12.14-1.13-.08-2.17-.61-3.03-.53.23-1.01.45-1.71.79-.88.42-1.83.62-2.8.68-.03.5-.28.96-.72,1.22-1.12.66-1.64.98-2.75,1.7-.85.54-1.8.81-2.79.92.04.54-.2,1.06-.64,1.36-1.12.76-1.69,1.15-2.86,1.93-.92.6-1.97.9-3.06,1.04.07.55-.16,1.1-.61,1.42-1.17.83-1.68,1.23-2.8,2.15-.31.25-.65.46-.99.65-.61.34-1.26.59-1.94.75l.03.08c.14.53-.02,1.1-.42,1.47-.66.63-1.1,1.06-1.57,1.55-.29.29-.59.61-.97,1-.79.83-1.76,1.41-2.79,1.74l.07.15c.16.5.05,1.06-.3,1.45-.96,1.1-1.41,1.64-2.33,2.77-.1.13-.22.24-.33.36-.6.63-1.3,1.11-2.06,1.43l.09.17c.17.45.12.96-.14,1.37-.31.48-.53.84-.73,1.18-.26.44-.48.86-.81,1.48-.44.84-1.13,1.48-1.9,1.9.07.09.14.19.19.29.2.41.21.89.02,1.3-.53,1.18-.79,1.79-1.36,3.09-.51,1.15-1.42,1.96-2.44,2.47-.9.45-1.89.68-2.91.74-.14,0-.27.02-.41.02-.54,0-1.09-.06-1.63-.17-.12-.03-.23-.05-.34-.07.02.75-.02,2.21,1.25,3.71h0c1.29,1.67,3.26,2.63,5.44,2.63.51,0,1.03-.07,1.56-.17.1-.02.2-.03.29-.05.25-.06.44-.09.59-.09.4,0,.42.27.25.97-.02.09-.04.17-.06.26-.46,1.88-.91,3.77-1.34,5.66-.34,1.5-.68,3-1,4.5-.47,2.2-1.42,4.1-2.87,5.77-.3.34-.59.69-.89,1.04,5.4,2.78,11.44,4.45,17.83,4.73.65.03,1.29.06,1.95.06s1.3-.02,1.95-.05c8.05-.36,15.54-2.93,21.91-7.14-1.2-.23-2.39-.47-3.59-.69-1.18-.22-2.08-.8-2.79-1.82-1.32-1.92-2.16-4.01-2.56-6.3-.02-.11-.05-.21-.07-.32-.09-.54.02-.66.31-.66.09,0,.2.01.33.02.11.01.23,0,.34.02.53.04,1.06.08,1.58.08,1.28,0,2.55-.13,3.81-.44,1.29-.31,2.38-.96,3.25-1.97.82-.96.97-1.88.2-2.88-.99-1.27-.88-2.33.09-3.51.23-.28.44-.58.56-.91.14-.39.14-.81-.17-1.27-.11-.16-.03-.27.1-.35,1.16-.68.67-1.57.3-2.44-.1-.23-.25-.45-.32-.69-.3-1.12.16-1.73,1.29-1.78.36-.01.71-.02,1.07-.07,2.04-.28,3.02-1.82,2.22-3.78"/>
      <path class="cls-2" d="M22.03,52.41c.22-.43.47-.84.78-1.22.93-1.13,1.44-1.72,2.43-2.8.37-.41.94-.57,1.47-.42.33-1.07.9-2.07,1.73-2.88,1.05-1.01,1.62-1.54,2.72-2.5.41-.36.98-.46,1.48-.26l.05.03.07-.17c.06-.14.14-.28.21-.42.42-.79.99-1.52,1.74-2.1.71-.55,1.23-.93,1.8-1.34.35-.25.72-.51,1.18-.83.43-.3.99-.34,1.46-.1l.11.08c.52-.98,1.29-1.86,2.32-2.46.22-.12.41-.23.6-.34.93-.52,1.62-.87,2.72-1.4.38-.18.8-.18,1.18-.02.09.04.18.08.27.14l.15.14c.4-.54.89-1.02,1.45-1.43-.17-.05-.35-.11-.56-.2l-.11-.03c-.39-.23-.8-.41-1.21-.57-.88-.34-1.81-.52-2.73-.52-.39,0-.78.04-1.16.1-1.44.22-2.84.85-4.02,1.9-.3.27-.56.44-.86.44-.19,0-.38-.07-.62-.22-.53-.36-1.17-.52-1.81-.63-.38-.06-.76-.09-1.12-.09-.95,0-1.84.22-2.65.61-1.47.7-2.64,1.98-3.27,3.7-.06.16-.13.31-.18.47-.11.37-.07.91-.61.91l-.19-.02c-.29-.05-.59-.08-.89-.08-3.34,0-6.87,3.15-7.18,7.46-.07.93-.44,1.41-1.19,1.85-.15.09-.28.2-.43.31-1.47,1.03-2.46,2.49-2.83,4.15-.26,1.15-.23,2.39.12,3.63.19.66.09,1.05-.35,1.54-2.24,2.5-2.39,6.49-.45,9.21,0-.02.01-.04.02-.06.66-1.4,1.03-2.14,1.76-3.51.25-.48.74-.76,1.27-.77.15-1.22.51-2.42,1.15-3.47.45-.74.79-1.28,1.15-1.83.28-.43.58-.87.96-1.41.32-.45.85-.68,1.38-.61.14-.67.38-1.32.69-1.93"/>
      <g>
        <path class="cls-2" d="M62.36,36.89c-1.68-.43-3.64-.3-5.25.41-.91.4-1.36.61-2.25,1.03,1.57.72,2.43,1.02,4.31,1.84,1.96.86,4.55,1.03,6.3.18,1.2-.59,1.81-.86,3.1-1.37-2.53-1.19-3.84-1.47-6.21-2.09"/>
        <path class="cls-2" d="M56.67,36.83c1.62-.69,2.68-1.71,2.94-2.85.37-1.61.63-2.43,1.59-4.8-1.43.37-2.14.57-3.57.98-2.09.61-3.61,2.51-3.59,4.16.02,1.58.08,2.21.37,3.52.9-.42,1.35-.62,2.26-1.01"/>
        <path class="cls-2" d="M50.04,40.83c-.87.49-1.31.74-2.18,1.25,1.6.78,2.48,1.11,4.55,1.99,2.16.91,5.02,1,6.65-.04,1.11-.71,1.67-1.06,2.8-1.73-2.84-1.13-4.19-1.43-6.63-2.08-1.73-.46-3.64-.25-5.19.61"/>
        <path class="cls-2" d="M47.39,41.53c.87-.51,1.3-.75,2.18-1.23,1.55-.85,2.52-2.09,2.67-3.42.21-1.87.39-2.82.99-5.34-1.41.48-2.11.73-3.49,1.28-2.02.79-3.19,2.93-2.98,4.75.2,1.74.28,2.47.64,3.96"/>
        <path class="cls-2" d="M43.22,45.02c-.79.57-1.18.86-1.94,1.47,1.54.78,2.34,1.13,4.41,1.98,2.16.9,5.34.92,7.05-.22,1.17-.78,1.73-1.17,2.86-1.93-3.29-1.12-4.73-1.44-7.26-2.12-1.79-.48-3.71-.19-5.11.82"/>
        <path class="cls-2" d="M40.79,45.9c.77-.6,1.16-.89,1.95-1.45,1.41-1,2.37-2.43,2.44-3.92.1-2.11.18-3.18.34-5.89-1.32.64-1.97.97-3.23,1.7-1.84,1.06-2.68,3.43-2.35,5.33.31,1.82.42,2.61.85,4.24"/>
        <path class="cls-2" d="M37.23,50.01c-.71.68-1.06,1.02-1.75,1.73,1.55.82,2.34,1.2,4.26,2.02,2,.86,4.77.55,6.41-.81,1.12-.93,1.7-1.37,2.88-2.22-3.52-1.02-4.79-1.29-7.16-1.91-1.67-.44-3.37-.02-4.64,1.19"/>
        <path class="cls-2" d="M34.97,51.1c.69-.7,1.05-1.04,1.76-1.71,1.27-1.19,1.99-2.84,1.94-4.44-.07-2.27,0-3.39-.17-6.19-1.19.82-1.77,1.25-2.92,2.13-1.67,1.29-2.34,3.69-1.85,5.66.47,1.89.68,2.77,1.24,4.56"/>
        <path class="cls-2" d="M31.85,55.74c-.64.76-.95,1.14-1.57,1.91,1.56.88,2.34,1.29,4.12,2.12,1.86.87,4.29.36,5.77-1.2,1.01-1.07,1.53-1.59,2.59-2.6-3.1-.78-4.29-1.04-6.55-1.65-1.6-.43-3.22.08-4.35,1.42"/>
        <path class="cls-2" d="M29.73,56.97c.62-.77.93-1.15,1.58-1.9,1.14-1.33,1.69-3.19,1.48-4.94-.3-2.47-.36-3.67-.69-6.4-1.09.95-1.62,1.44-2.66,2.45-1.52,1.47-2,3.92-1.34,5.95.63,1.95.93,2.9,1.63,4.84"/>
        <path class="cls-2" d="M26.77,62.04c-.62.82-.92,1.24-1.49,2.09,1.57.73,2.38,1.12,4.17,1.93,1.86.85,3.95.37,5.3-1.28.92-1.13,1.39-1.69,2.35-2.8-2.71-.62-3.81-.89-5.97-1.53-1.53-.45-3.26.13-4.36,1.59"/>
        <path class="cls-2" d="M24.72,63.49c.58-.86.87-1.28,1.5-2.11,1.1-1.48,1.68-3.54,1.31-5.39-.51-2.62-.71-3.89-1.22-6.57-.98,1.07-1.45,1.62-2.38,2.74-1.35,1.64-1.66,4.29-.95,6.41.68,2.03.99,3.02,1.74,4.92"/>
        <path class="cls-2" d="M22.36,68.89c-.51.9-.75,1.36-1.25,2.29,1.6.47,2.46.7,4.43,1.34,2.06.67,4.2.14,5.06-1.5.59-1.12.9-1.67,1.6-2.77-2.54-.63-3.72-.95-5.92-1.42-1.56-.33-3.03.47-3.92,2.06"/>
        <path class="cls-2" d="M20.51,70.64c.5-.94.75-1.4,1.26-2.32.9-1.62,1.19-3.67.79-5.56-.57-2.67-.79-4.11-1.4-6.94-.86,1.23-1.27,1.87-2.07,3.17-1.17,1.9-1.31,4.85-.53,6.96.75,2.02,1.09,2.93,1.96,4.69"/>
        <path class="cls-2" d="M18.39,76.48c-.51,1.01-.77,1.53-1.31,2.58,1.58.28,2.48.38,4.68.84,2.29.49,4.92-.32,5.75-2.21.57-1.29.83-1.9,1.37-3.1-2.89-.6-4.19-.75-6.52-.88-1.65-.09-3.06.97-3.97,2.76"/>
        <path class="cls-2" d="M18.4,70.25c-.67-2.6-.95-4.01-1.67-7.1-.72,1.36-1.07,2.06-1.73,3.45-.97,2.04-.96,5.17-.24,7.32.69,2.05.99,2.92,1.76,4.66.52-1.05.78-1.57,1.28-2.59.89-1.8,1.08-3.9.6-5.74"/>
      </g>
    </g>
    <g>
      <g>
        <path class="cls-2" d="M130.36,60.4c-.18.95-1.16,4.97-1.47,5.95h-18.18v-1.26c3.19-.32,3.4-.49,3.4-3.43v-13.38c0-2.98-.42-3.19-2.8-3.4v-1.3h11.38c3.68,0,4.9-.04,5.39-.07.04.63.21,3.5.35,5.67l-1.37.17c-.31-1.19-.91-2.63-1.51-3.26-.63-.7-1.09-.91-2.87-.91h-2.28c-1.33,0-1.47.07-1.47,1.26v7.32h3.43c1.96,0,2.31-.53,2.84-3.01h1.37v7.81h-1.37c-.56-2.59-.84-3.01-2.87-3.01h-3.4v6.02c0,2.42.07,3.15,2.24,3.19h2.49c1.96,0,2.49-.25,3.26-1.19.88-1.02,1.58-2.31,2.14-3.5l1.3.31Z"/>
        <path class="cls-2" d="M150.99,60.19c-.28,1.51-1.26,5.22-1.58,6.16h-17.37v-1.29c3.08-.21,3.36-.46,3.36-3.4v-13.34c0-2.94-.35-3.22-2.98-3.43v-1.3h10.93v1.3c-2.73.24-3.08.49-3.08,3.43v13.59c0,1.93.07,2.8,2,2.84.07.04,1.68.04,1.82.04,2,0,2.52-.42,3.36-1.37.67-.7,1.58-2.21,2.21-3.64l1.33.42Z"/>
        <path class="cls-2" d="M173.06,43.1c6.48,0,11.77,4.73,11.77,11.63,0,7.46-5.32,12.15-11.94,12.15-7,0-12.08-5.11-12.08-11.87,0-5.99,4.27-11.91,12.26-11.91M172.53,44.64c-3.57,0-6.2,3.5-6.2,9.7s2.35,11,7.07,11c3.33,0,5.92-3.22,5.92-9.63,0-6.94-2.73-11.07-6.79-11.07"/>
        <path class="cls-2" d="M206.43,60.19c-.28,1.51-1.26,5.22-1.58,6.16h-17.37v-1.29c3.08-.21,3.36-.46,3.36-3.4v-13.34c0-2.94-.35-3.22-2.98-3.43v-1.3h10.93v1.3c-2.73.24-3.08.49-3.08,3.43v13.59c0,1.93.07,2.8,2,2.84.07.04,1.68.04,1.82.04,2,0,2.52-.42,3.36-1.37.67-.7,1.58-2.21,2.21-3.64l1.33.42Z"/>
        <path class="cls-2" d="M208.08,66.35v-1.3c2.66-.25,2.98-.46,2.98-3.4v-13.34c0-2.94-.35-3.22-2.98-3.43v-1.3h10.82v1.3c-2.63.24-2.98.49-2.98,3.43v13.34c0,2.91.31,3.12,2.98,3.4v1.3h-10.82Z"/>
        <path class="cls-2" d="M244.75,44.88c-2.31.24-3.01.56-4.34,3.89-1.09,2.7-4.69,11.38-7.28,17.97h-1.93c-.98-2.73-5.53-14.74-7-18.46-1.09-2.63-1.54-3.19-3.82-3.4v-1.3h10.68l-.03,1.3c-2.56.35-2.56.6-2,2.07,1.09,2.94,3.71,10.15,4.9,13.24,2.1-5.01,3.99-9.77,4.8-12.05.88-2.42.63-2.94-2.31-3.26v-1.3h8.33v1.3Z"/>
        <path class="cls-2" d="M253.62,66.35v-1.3c2.21-.32,2.21-.7,1.72-2.21-.35-1.05-.91-2.63-1.44-4.03h-6.83c-.39,1.09-.88,2.42-1.23,3.5-.74,2.21.1,2.49,2.87,2.73v1.3h-8.65v-1.3c2.21-.28,2.77-.6,3.96-3.54l7.28-18.11,1.68-.31c2.24,6.09,4.62,12.33,6.9,18.17,1.3,3.26,1.61,3.5,3.89,3.78v1.3h-10.16ZM250.53,49.61c-1.02,2.52-2,4.87-2.87,7.42h5.57l-2.7-7.42Z"/>
        <path class="cls-2" d="M287.06,66.56c-.21,0-.63,0-1.05-.03-4.45-.21-5.74-1.16-6.79-2.63-1.4-1.93-2.42-4.06-3.61-6.16-.53-.95-1.02-1.16-2.14-1.16l-.7-.03v5.11c0,2.84.35,3.08,2.98,3.4v1.3h-10.72v-1.3c2.66-.28,2.98-.56,2.98-3.4v-13.41c0-2.77-.35-3.15-2.98-3.36v-1.3h10.15c3.12,0,4.9.35,6.34,1.33,1.4.95,2.35,2.49,2.35,4.66,0,3.12-2.07,4.76-4.38,5.67.53,1.05,1.89,3.33,2.94,4.94,1.23,1.93,2,2.87,2.66,3.64.81.91,1.19,1.19,2.21,1.54l-.25,1.19ZM273.72,55.11c1.51,0,2.66-.25,3.43-.91,1.16-.98,1.65-2.31,1.65-4.1,0-3.71-2.14-5.04-4.1-5.04-.95,0-1.4.14-1.61.35-.24.21-.32.63-.32,1.33v8.37h.95Z"/>
      </g>
      <g>
        <path class="cls-2" d="M116.08,87.5v.92h-5.37v-7.4h5.22v.92h-4.16v2.27h3.71v.9h-3.71v2.39h4.31Z"/>
        <path class="cls-2" d="M117.12,84.72c0-2.19,1.67-3.78,3.92-3.78,1.14,0,2.13.39,2.81,1.15l-.69.67c-.57-.6-1.27-.88-2.08-.88-1.67,0-2.91,1.2-2.91,2.84s1.24,2.84,2.91,2.84c.81,0,1.51-.29,2.08-.89l.69.67c-.68.76-1.67,1.16-2.82,1.16-2.24,0-3.91-1.6-3.91-3.78Z"/>
        <path class="cls-2" d="M124.75,84.72c0-2.17,1.67-3.78,3.94-3.78s3.92,1.61,3.92,3.78-1.67,3.78-3.92,3.78-3.94-1.62-3.94-3.78ZM131.56,84.72c0-1.64-1.23-2.84-2.86-2.84s-2.89,1.2-2.89,2.84,1.23,2.84,2.89,2.84,2.86-1.2,2.86-2.84Z"/>
        <path class="cls-2" d="M134.23,85.08h2.84v.88h-2.84v-.88Z"/>
        <path class="cls-2" d="M138.67,84.72c0-2.19,1.67-3.78,3.92-3.78,1.14,0,2.13.39,2.81,1.15l-.69.67c-.57-.6-1.27-.88-2.08-.88-1.67,0-2.91,1.2-2.91,2.84s1.24,2.84,2.91,2.84c.81,0,1.51-.29,2.08-.89l.69.67c-.68.76-1.67,1.16-2.82,1.16-2.24,0-3.91-1.6-3.91-3.78Z"/>
        <path class="cls-2" d="M146.3,84.72c0-2.17,1.67-3.78,3.94-3.78s3.92,1.61,3.92,3.78-1.67,3.78-3.92,3.78-3.94-1.62-3.94-3.78ZM153.11,84.72c0-1.64-1.23-2.84-2.86-2.84s-2.89,1.2-2.89,2.84,1.23,2.84,2.89,2.84,2.86-1.2,2.86-2.84Z"/>
        <path class="cls-2" d="M162.3,81.02v7.4h-.87l-4.44-5.52v5.52h-1.06v-7.4h.87l4.44,5.52v-5.52h1.06Z"/>
        <path class="cls-2" d="M164.61,81.02h3.12c2.38,0,4,1.5,4,3.7s-1.62,3.7-4,3.7h-3.12v-7.4ZM167.67,87.5c1.83,0,3-1.12,3-2.78s-1.17-2.78-3-2.78h-2v5.56h2Z"/>
        <path class="cls-2" d="M172.95,84.72c0-2.17,1.67-3.78,3.94-3.78s3.92,1.61,3.92,3.78-1.67,3.78-3.92,3.78-3.94-1.62-3.94-3.78ZM179.75,84.72c0-1.64-1.23-2.84-2.86-2.84s-2.89,1.2-2.89,2.84,1.23,2.84,2.89,2.84,2.86-1.2,2.86-2.84Z"/>
        <path class="cls-2" d="M189.44,88.42v-5.39s-2.68,4.49-2.68,4.49h-.49l-2.67-4.46v5.36h-1.01v-7.4h.87l3.09,5.2,3.04-5.2h.87v7.4s-1,0-1,0Z"/>
        <path class="cls-2" d="M192.77,81.02h1.06v7.4h-1.06v-7.4Z"/>
        <path class="cls-2" d="M202.48,81.02v7.4h-.87l-4.44-5.52v5.52h-1.06v-7.4h.87l4.44,5.52v-5.52h1.06Z"/>
        <path class="cls-2" d="M204.79,81.02h1.06v7.4h-1.06v-7.4Z"/>
        <path class="cls-2" d="M207.61,84.72c0-2.17,1.67-3.78,3.94-3.78s3.92,1.61,3.92,3.78-1.67,3.78-3.92,3.78-3.94-1.62-3.94-3.78ZM214.42,84.72c0-1.64-1.23-2.84-2.86-2.84s-2.89,1.2-2.89,2.84,1.23,2.84,2.89,2.84,2.86-1.2,2.86-2.84Z"/>
        <path class="cls-2" d="M219.33,84.72c0-2.19,1.67-3.78,3.92-3.78,1.14,0,2.14.39,2.81,1.15l-.69.67c-.57-.6-1.27-.88-2.08-.88-1.67,0-2.91,1.2-2.91,2.84s1.24,2.84,2.91,2.84c.81,0,1.51-.29,2.08-.89l.69.67c-.68.76-1.67,1.16-2.82,1.16-2.24,0-3.91-1.6-3.91-3.78Z"/>
        <path class="cls-2" d="M232.6,86.57h-3.93l-.81,1.85h-1.09l3.35-7.4h1.05l3.36,7.4h-1.11l-.81-1.85ZM232.23,85.72l-1.6-3.63-1.6,3.63h3.19Z"/>
        <path class="cls-2" d="M242.65,88.42v-5.39s-2.68,4.49-2.68,4.49h-.49l-2.67-4.46v5.36h-1.01v-7.4h.87l3.09,5.2,3.04-5.2h.87v7.4s-1,0-1,0Z"/>
        <path class="cls-2" d="M251.95,83.6c0,1.61-1.16,2.58-3.09,2.58h-1.83v2.24h-1.06v-7.4h2.89c1.92,0,3.09.97,3.09,2.58ZM250.89,83.6c0-1.06-.71-1.66-2.06-1.66h-1.8v3.32h1.8c1.35,0,2.06-.6,2.06-1.66Z"/>
        <path class="cls-2" d="M258.99,87.5v.92h-5.37v-7.4h5.22v.92h-4.16v2.27h3.71v.9h-3.71v2.39h4.31Z"/>
        <path class="cls-2" d="M260.22,87.57l.39-.82c.55.5,1.49.86,2.44.86,1.28,0,1.83-.5,1.83-1.14,0-1.81-4.48-.67-4.48-3.41,0-1.14.89-2.11,2.83-2.11.87,0,1.76.23,2.38.66l-.35.85c-.65-.41-1.37-.6-2.03-.6-1.26,0-1.8.53-1.8,1.17,0,1.81,4.48.68,4.48,3.39,0,1.13-.91,2.1-2.86,2.1-1.13,0-2.24-.38-2.83-.93Z"/>
        <path class="cls-2" d="M269.24,81.94h-2.54v-.92h6.12v.92h-2.54v6.48h-1.05v-6.48Z"/>
        <path class="cls-2" d="M279.06,88.42l-1.6-2.27c-.15.01-.31.02-.47.02h-1.83v2.25h-1.06v-7.4h2.89c1.92,0,3.09.97,3.09,2.58,0,1.14-.59,1.97-1.63,2.34l1.75,2.48h-1.15ZM279.03,83.6c0-1.06-.71-1.66-2.06-1.66h-1.8v3.33h1.8c1.35,0,2.06-.61,2.06-1.67Z"/>
        <path class="cls-2" d="M287.31,87.5v.92h-5.37v-7.4h5.22v.92h-4.16v2.27h3.71v.9h-3.71v2.39h4.31Z"/>
      </g>
    </g>
  </g>
</svg>